<svg version="1.1" viewBox="0.0 0.0 1150.0 506.0" fill="none" stroke="none" stroke-linecap="square" stroke-miterlimit="10" width="1150" height="506" xmlns:xlink="http://www.w3.org/1999/xlink" xmlns="http://www.w3.org/2000/svg"><path fill="#ffffff" d="M0 0L1150.0 0L1150.0 506.0L0 506.0L0 0Z" fill-rule="nonzero"/><path stroke="#cccccc" stroke-width="1.0" stroke-linecap="butt" d="M91.5 63.5L91.5 428.5" fill-rule="nonzero"/><path stroke="#cccccc" stroke-width="1.0" stroke-linecap="butt" d="M237.5 63.5L237.5 428.5" fill-rule="nonzero"/><path stroke="#cccccc" stroke-width="1.0" stroke-linecap="butt" d="M384.5 63.5L384.5 428.5" fill-rule="nonzero"/><path stroke="#cccccc" stroke-width="1.0" stroke-linecap="butt" d="M531.5 63.5L531.5 428.5" fill-rule="nonzero"/><path stroke="#cccccc" stroke-width="1.0" stroke-linecap="butt" d="M677.5 63.5L677.5 428.5" fill-rule="nonzero"/><path stroke="#cccccc" stroke-width="1.0" stroke-linecap="butt" d="M824.5 63.5L824.5 428.5" fill-rule="nonzero"/><path stroke="#cccccc" stroke-width="1.0" stroke-linecap="butt" d="M971.5 63.5L971.5 428.5" fill-rule="nonzero"/><path stroke="#cccccc" stroke-width="1.0" stroke-linecap="butt" d="M1117.5 63.5L1117.5 428.5" fill-rule="nonzero"/><path stroke="#333333" stroke-width="1.0" stroke-linecap="butt" d="M84.5 428.5L1124.5 428.5" fill-rule="nonzero"/><path stroke="#cccccc" stroke-width="1.0" stroke-linecap="butt" d="M84.5 306.5L1124.5 306.5" fill-rule="nonzero"/><path stroke="#cccccc" stroke-width="1.0" stroke-linecap="butt" d="M84.5 185.5L1124.5 185.5" fill-rule="nonzero"/><path stroke="#cccccc" stroke-width="1.0" stroke-linecap="butt" d="M84.5 63.5L1124.5 63.5" fill-rule="nonzero"/><clipPath id="id_0"><path d="M84.3 63.166668L1124.7 63.166668L1124.7 428.7L84.3 428.7L84.3 63.166668Z" clip-rule="nonzero"/></clipPath><path stroke="#4285f4" stroke-width="2.0" stroke-linecap="butt" stroke-opacity="0.4" clip-path="url(#id_0)" d="M0 420.4799L1124.7 379.3711" fill-rule="nonzero"/><path stroke="#ea4335" stroke-width="2.0" stroke-linecap="butt" stroke-opacity="0.4" clip-path="url(#id_0)" d="M0 409.46432L1124.7 107.25347" fill-rule="nonzero"/><path stroke="#fbbc04" stroke-width="2.0" stroke-linecap="butt" stroke-opacity="0.4" clip-path="url(#id_0)" d="M0 426.63873L1124.7 394.50104" fill-rule="nonzero"/><path fill="#4285f4" clip-path="url(#id_0)" d="M95.707054 417.1248C95.707054 419.61005 93.69234 421.6248 91.207054 421.6248C88.72177 421.6248 86.707054 419.61005 86.707054 417.1248C86.707054 414.6395 88.72177 412.6248 91.207054 412.6248C93.69234 412.6248 95.707054 414.6395 95.707054 417.1248Z" fill-rule="nonzero"/><path fill="#4285f4" clip-path="url(#id_0)" d="M462.34488 401.285C462.34488 403.7703 460.33017 405.785 457.84488 405.785C455.3596 405.785 453.34488 403.7703 453.34488 401.285C453.34488 398.7997 455.3596 396.785 457.84488 396.785C460.33017 396.785 462.34488 398.7997 462.34488 401.285Z" fill-rule="nonzero"/><path fill="#4285f4" clip-path="url(#id_0)" d="M609.0 402.50345C609.0 404.98874 606.9853 407.00345 604.5 407.00345C602.0147 407.00345 600.0 404.98874 600.0 402.50345C600.0 400.01816 602.0147 398.00345 604.5 398.00345C606.9853 398.00345 609.0 400.01816 609.0 402.50345Z" fill-rule="nonzero"/><path fill="#4285f4" clip-path="url(#id_0)" d="M975.6378 381.7899C975.6378 384.27518 973.6231 386.2899 971.1378 386.2899C968.6525 386.2899 966.6378 384.27518 966.6378 381.7899C966.6378 379.3046 968.6525 377.2899 971.1378 377.2899C973.6231 377.2899 975.6378 379.3046 975.6378 381.7899Z" fill-rule="nonzero"/><path fill="#4285f4" clip-path="url(#id_0)" d="M1122.293 381.18066C1122.293 383.66595 1120.2782 385.68066 1117.793 385.68066C1115.3076 385.68066 1113.293 383.66595 1113.293 381.18066C1113.293 378.69537 1115.3076 376.68066 1117.793 376.68066C1120.2782 376.68066 1122.293 378.69537 1122.293 381.18066Z" fill-rule="nonzero"/><path fill="#ea4335" clip-path="url(#id_0)" d="M95.707054 387.2729C95.707054 389.75818 93.69234 391.7729 91.207054 391.7729C88.72177 391.7729 86.707054 389.75818 86.707054 387.2729C86.707054 384.7876 88.72177 382.7729 91.207054 382.7729C93.69234 382.7729 95.707054 384.7876 95.707054 387.2729Z" fill-rule="nonzero"/><path fill="#ea4335" clip-path="url(#id_0)" d="M462.34488 293.45267C462.34488 295.93796 460.33017 297.95267 457.84488 297.95267C455.3596 297.95267 453.34488 295.93796 453.34488 293.45267C453.34488 290.96738 455.3596 288.95267 457.84488 288.95267C460.33017 288.95267 462.34488 290.96738 462.34488 293.45267Z" fill-rule="nonzero"/><path fill="#ea4335" clip-path="url(#id_0)" d="M609.0 241.05956C609.0 243.54483 606.9853 245.55956 604.5 245.55956C602.0147 245.55956 600.0 243.54483 600.0 241.05956C600.0 238.57428 602.0147 236.55956 604.5 236.55956C606.9853 236.55956 609.0 238.57428 609.0 241.05956Z" fill-rule="nonzero"/><path fill="#ea4335" clip-path="url(#id_0)" d="M975.6378 121.652C975.6378 124.13728 973.6231 126.152 971.1378 126.152C968.6525 126.152 966.6378 124.13728 966.6378 121.652C966.6378 119.16672 968.6525 117.152 971.1378 117.152C973.6231 117.152 975.6378 119.16672 975.6378 121.652Z" fill-rule="nonzero"/><path fill="#ea4335" clip-path="url(#id_0)" d="M1122.293 132.618C1122.293 135.10329 1120.2782 137.118 1117.793 137.118C1115.3076 137.118 1113.293 135.10329 1113.293 132.618C1113.293 130.13272 1115.3076 128.118 1117.793 128.118C1120.2782 128.118 1122.293 130.13272 1122.293 132.618Z" fill-rule="nonzero"/><path fill="#fbbc04" clip-path="url(#id_0)" d="M95.707054 424.43546C95.707054 426.92072 93.69234 428.93546 91.207054 428.93546C88.72177 428.93546 86.707054 426.92072 86.707054 424.43546C86.707054 421.95016 88.72177 419.93546 91.207054 419.93546C93.69234 419.93546 95.707054 421.95016 95.707054 424.43546Z" fill-rule="nonzero"/><path fill="#fbbc04" clip-path="url(#id_0)" d="M462.34488 413.46945C462.34488 415.9547 460.33017 417.96945 457.84488 417.96945C455.3596 417.96945 453.34488 415.9547 453.34488 413.46945C453.34488 410.98416 455.3596 408.96945 457.84488 408.96945C460.33017 408.96945 462.34488 410.98416 462.34488 413.46945Z" fill-rule="nonzero"/><path fill="#fbbc04" clip-path="url(#id_0)" d="M609.0 407.98645C609.0 410.47174 606.9853 412.48645 604.5 412.48645C602.0147 412.48645 600.0 410.47174 600.0 407.98645C600.0 405.50116 602.0147 403.48645 604.5 403.48645C606.9853 403.48645 609.0 405.50116 609.0 407.98645Z" fill-rule="nonzero"/><path fill="#fbbc04" clip-path="url(#id_0)" d="M975.6378 401.285C975.6378 403.7703 973.6231 405.785 971.1378 405.785C968.6525 405.785 966.6378 403.7703 966.6378 401.285C966.6378 398.7997 968.6525 396.785 971.1378 396.785C973.6231 396.785 975.6378 398.7997 975.6378 401.285Z" fill-rule="nonzero"/><path fill="#fbbc04" clip-path="url(#id_0)" d="M1122.293 393.3651C1122.293 395.8504 1120.2782 397.8651 1117.793 397.8651C1115.3076 397.8651 1113.293 395.8504 1113.293 393.3651C1113.293 390.87982 1115.3076 388.8651 1117.793 388.8651C1120.2782 388.8651 1122.293 390.87982 1122.293 393.3651Z" fill-rule="nonzero"/><path fill="#000000" d="M575.1094 477.7L575.1094 470.1219L572.28125 470.1219L572.28125 469.10626L579.09375 469.10626L579.09375 470.1219L576.25 470.1219L576.25 477.7L575.1094 477.7ZM579.7969 470.325L579.7969 469.10626L580.8594 469.10626L580.8594 470.325L579.7969 470.325ZM579.7969 477.7L579.7969 471.48126L580.8594 471.48126L580.8594 477.7L579.7969 477.7ZM582.7969 477.7L582.7969 471.48126L583.7344 471.48126L583.7344 472.35626Q584.03125 471.8875 584.5156 471.6219Q585.0 471.34064 585.625 471.34064Q586.3125 471.34064 586.75 471.6219Q587.2031 471.90314 587.375 472.41876Q588.125 471.34064 589.2969 471.34064Q590.2344 471.34064 590.71875 471.85626Q591.21875 472.35626 591.21875 473.4344L591.21875 477.7L590.1719 477.7L590.1719 473.77814Q590.1719 473.15314 590.0625 472.8719Q589.96875 472.59064 589.7031 472.41876Q589.4375 472.2469 589.0625 472.2469Q588.40625 472.2469 587.96875 472.6844Q587.5469 473.1219 587.5469 474.09064L587.5469 477.7L586.4844 477.7L586.4844 473.65314Q586.4844 472.95 586.21875 472.60626Q585.96875 472.2469 585.3906 472.2469Q584.9375 472.2469 584.5625 472.48126Q584.1875 472.71564 584.0156 473.16876Q583.84375 473.6219 583.84375 474.46564L583.84375 477.7L582.7969 477.7ZM598.0469 475.7L599.1406 475.825Q598.8906 476.77814 598.1875 477.3094Q597.4844 477.84064 596.40625 477.84064Q595.0469 477.84064 594.2344 476.9969Q593.4375 476.15314 593.4375 474.6375Q593.4375 473.075 594.25 472.21564Q595.0625 471.34064 596.34375 471.34064Q597.59375 471.34064 598.375 472.1844Q599.1719 473.02814 599.1719 474.575Q599.1719 474.66876 599.1719 474.85626L594.53125 474.85626Q594.59375 475.8875 595.1094 476.4344Q595.625 476.96564 596.40625 476.96564Q596.9844 476.96564 597.3906 476.66876Q597.8125 476.35626 598.0469 475.7ZM594.59375 473.9969L598.0625 473.9969Q598.0 473.2 597.6719 472.8094Q597.15625 472.2 596.3594 472.2Q595.625 472.2 595.125 472.6844Q594.6406 473.16876 594.59375 473.9969ZM605.8125 480.23126Q604.9375 479.1219 604.3281 477.65314Q603.7344 476.16876 603.7344 474.59064Q603.7344 473.2 604.1719 471.91876Q604.7031 470.4344 605.8125 468.96564L606.5625 468.96564Q605.8594 470.1844 605.625 470.7Q605.2656 471.5125 605.0625 472.3875Q604.8125 473.48126 604.8125 474.59064Q604.8125 477.41876 606.5625 480.23126L605.8125 480.23126ZM611.8281 477.7L611.8281 476.91876Q611.2344 477.84064 610.09375 477.84064Q609.34375 477.84064 608.71875 477.4344Q608.09375 477.0125 607.75 476.27814Q607.40625 475.54376 607.40625 474.59064Q607.40625 473.66876 607.71875 472.90314Q608.03125 472.1375 608.65625 471.7469Q609.28125 471.34064 610.0469 471.34064Q610.6094 471.34064 611.0469 471.575Q611.4844 471.8094 611.7656 472.1844L611.7656 469.10626L612.8125 469.10626L612.8125 477.7L611.8281 477.7ZM608.5 474.59064Q608.5 475.79376 609.0 476.3875Q609.5 476.96564 610.1875 476.96564Q610.875 476.96564 611.3594 476.40314Q611.84375 475.84064 611.84375 474.6844Q611.84375 473.40314 611.34375 472.8094Q610.8594 472.21564 610.1406 472.21564Q609.4375 472.21564 608.96875 472.79376Q608.5 473.35626 608.5 474.59064ZM618.8594 476.9344Q618.2656 477.4344 617.71875 477.6375Q617.1875 477.84064 616.5625 477.84064Q615.53125 477.84064 614.9844 477.34064Q614.4375 476.84064 614.4375 476.0594Q614.4375 475.60626 614.6406 475.23126Q614.84375 474.84064 615.1875 474.6219Q615.53125 474.3875 615.9531 474.27814Q616.25 474.1844 616.8906 474.10626Q618.15625 473.96564 618.7656 473.7469Q618.7656 473.52814 618.7656 473.48126Q618.7656 472.825 618.46875 472.5594Q618.0625 472.21564 617.2656 472.21564Q616.53125 472.21564 616.1719 472.48126Q615.8125 472.73126 615.6406 473.3875L614.6094 473.2469Q614.75 472.59064 615.0781 472.1844Q615.40625 471.77814 616.0156 471.5594Q616.625 471.34064 617.4219 471.34064Q618.21875 471.34064 618.71875 471.52814Q619.21875 471.71564 619.4531 471.9969Q619.6875 472.27814 619.78125 472.71564Q619.8281 472.98126 619.8281 473.6844L619.8281 475.09064Q619.8281 476.5594 619.8906 476.95Q619.96875 477.34064 620.1719 477.7L619.0625 477.7Q618.90625 477.3719 618.8594 476.9344ZM618.7656 474.575Q618.1875 474.8094 617.0469 474.98126Q616.3906 475.075 616.125 475.2Q615.8594 475.3094 615.7031 475.52814Q615.5625 475.7469 615.5625 476.02814Q615.5625 476.45 615.875 476.73126Q616.2031 477.0125 616.8125 477.0125Q617.4219 477.0125 617.8906 476.7469Q618.375 476.48126 618.59375 476.0125Q618.7656 475.65314 618.7656 474.96564L618.7656 474.575ZM621.75 480.09064L621.625 479.10626Q621.96875 479.2 622.2344 479.2Q622.5781 479.2 622.78125 479.075Q623.0 478.96564 623.1406 478.7625Q623.2344 478.59064 623.46875 477.96564Q623.4844 477.8875 623.5625 477.71564L621.1875 471.48126L622.3281 471.48126L623.625 475.075Q623.875 475.7625 624.0781 476.52814Q624.2656 475.79376 624.5156 475.10626L625.84375 471.48126L626.8906 471.48126L624.53125 477.8094Q624.1406 478.825 623.9375 479.21564Q623.65625 479.7469 623.28125 479.98126Q622.9219 480.23126 622.4219 480.23126Q622.125 480.23126 621.75 480.09064ZM626.375 475.84064L627.40625 475.6844Q627.5 476.3094 627.8906 476.6375Q628.2969 476.96564 629.03125 476.96564Q629.75 476.96564 630.09375 476.6844Q630.4531 476.3875 630.4531 475.98126Q630.4531 475.6219 630.1406 475.41876Q629.9219 475.27814 629.0625 475.0594Q627.90625 474.7625 627.4531 474.5594Q627.0156 474.34064 626.78125 473.96564Q626.5469 473.59064 626.5469 473.1219Q626.5469 472.71564 626.7344 472.35626Q626.9219 471.9969 627.25 471.7625Q627.5 471.59064 627.9219 471.46564Q628.34375 471.34064 628.84375 471.34064Q629.5625 471.34064 630.1094 471.5594Q630.6719 471.7625 630.9375 472.1219Q631.2031 472.48126 631.2969 473.075L630.2656 473.21564Q630.2031 472.7469 629.8594 472.48126Q629.53125 472.2 628.90625 472.2Q628.1875 472.2 627.875 472.45Q627.5625 472.6844 627.5625 473.0125Q627.5625 473.21564 627.6875 473.3719Q627.8281 473.54376 628.09375 473.65314Q628.25 473.71564 629.03125 473.91876Q630.15625 474.23126 630.59375 474.41876Q631.03125 474.60626 631.28125 474.96564Q631.53125 475.325 631.53125 475.8719Q631.53125 476.40314 631.21875 476.8719Q630.9219 477.325 630.34375 477.59064Q629.7656 477.84064 629.03125 477.84064Q627.8125 477.84064 627.1719 477.34064Q626.5469 476.825 626.375 475.84064ZM634.4844 480.23126L633.7344 480.23126Q635.4844 477.41876 635.4844 474.59064Q635.4844 473.4969 635.2344 472.40314Q635.03125 471.52814 634.6719 470.71564Q634.4375 470.2 633.7344 468.96564L634.4844 468.96564Q635.5781 470.4344 636.1094 471.91876Q636.5625 473.2 636.5625 474.59064Q636.5625 476.16876 635.9531 477.65314Q635.34375 479.1219 634.4844 480.23126Z" fill-rule="nonzero"/><path fill="#000000" d="M36.30001 290.04272L27.706263 290.04272L27.706263 288.32397L33.784386 286.29272Q34.64376 286.01147 35.065636 285.88647Q34.596886 285.74585 33.690636 285.43335L27.706263 283.37085L27.706263 281.8396L36.30001 281.8396L36.30001 282.93335L29.112513 282.93335L36.30001 285.43335L36.30001 286.4646L28.987513 288.94897L36.30001 288.94897L36.30001 290.04272ZM35.534386 277.07397Q36.034386 277.66772 36.23751 278.2146Q36.440636 278.74585 36.440636 279.37085Q36.440636 280.4021 35.940636 280.94897Q35.440636 281.49585 34.659386 281.49585Q34.20626 281.49585 33.83126 281.29272Q33.440636 281.0896 33.221886 280.74585Q32.98751 280.4021 32.878136 279.98022Q32.784386 279.68335 32.70626 279.04272Q32.565636 277.7771 32.346886 277.16772Q32.128136 277.16772 32.08126 277.16772Q31.425013 277.16772 31.159388 277.4646Q30.815638 277.87085 30.815638 278.66772Q30.815638 279.4021 31.081263 279.76147Q31.331263 280.12085 31.987513 280.29272L31.846888 281.32397Q31.190638 281.18335 30.784388 280.85522Q30.378138 280.5271 30.159388 279.91772Q29.940638 279.30835 29.940638 278.51147Q29.940638 277.7146 30.128138 277.2146Q30.315638 276.7146 30.596888 276.48022Q30.878138 276.24585 31.315638 276.1521Q31.581263 276.10522 32.284386 276.10522L33.690636 276.10522Q35.159386 276.10522 35.55001 276.04272Q35.940636 275.9646 36.30001 275.76147L36.30001 276.87085Q35.971886 277.0271 35.534386 277.07397ZM33.17501 277.16772Q33.409386 277.74585 33.58126 278.88647Q33.67501 279.54272 33.80001 279.80835Q33.909386 280.07397 34.128136 280.23022Q34.346886 280.37085 34.628136 280.37085Q35.05001 280.37085 35.33126 280.05835Q35.61251 279.73022 35.61251 279.12085Q35.61251 278.51147 35.346886 278.04272Q35.08126 277.55835 34.61251 277.3396Q34.253136 277.16772 33.565636 277.16772L33.17501 277.16772ZM34.440636 274.55835L34.284386 273.5271Q34.909386 273.43335 35.23751 273.04272Q35.565636 272.63647 35.565636 271.9021Q35.565636 271.18335 35.284386 270.8396Q34.98751 270.48022 34.58126 270.48022Q34.221886 270.48022 34.01876 270.79272Q33.878136 271.01147 33.659386 271.87085Q33.36251 273.0271 33.159386 273.48022Q32.940636 273.91772 32.565636 274.1521Q32.190636 274.38647 31.721888 274.38647Q31.315638 274.38647 30.956263 274.19897Q30.596888 274.01147 30.362513 273.68335Q30.190638 273.43335 30.065638 273.01147Q29.940638 272.5896 29.940638 272.0896Q29.940638 271.37085 30.159388 270.82397Q30.362513 270.26147 30.721888 269.99585Q31.081263 269.73022 31.675013 269.63647L31.815638 270.66772Q31.346888 270.73022 31.081263 271.07397Q30.800013 271.4021 30.800013 272.0271Q30.800013 272.74585 31.050013 273.05835Q31.284388 273.37085 31.612513 273.37085Q31.815638 273.37085 31.971888 273.24585Q32.14376 273.10522 32.253136 272.8396Q32.315636 272.68335 32.51876 271.9021Q32.83126 270.7771 33.01876 270.3396Q33.20626 269.9021 33.565636 269.6521Q33.92501 269.4021 34.471886 269.4021Q35.003136 269.4021 35.471886 269.7146Q35.92501 270.01147 36.190636 270.5896Q36.440636 271.16772 36.440636 271.9021Q36.440636 273.12085 35.940636 273.76147Q35.42501 274.38647 34.440636 274.55835ZM34.440636 267.55835L34.284386 266.5271Q34.909386 266.43335 35.23751 266.04272Q35.565636 265.63647 35.565636 264.9021Q35.565636 264.18335 35.284386 263.8396Q34.98751 263.48022 34.58126 263.48022Q34.221886 263.48022 34.01876 263.79272Q33.878136 264.01147 33.659386 264.87085Q33.36251 266.0271 33.159386 266.48022Q32.940636 266.91772 32.565636 267.1521Q32.190636 267.38647 31.721888 267.38647Q31.315638 267.38647 30.956263 267.19897Q30.596888 267.01147 30.362513 266.68335Q30.190638 266.43335 30.065638 266.01147Q29.940638 265.5896 29.940638 265.0896Q29.940638 264.37085 30.159388 263.82397Q30.362513 263.26147 30.721888 262.99585Q31.081263 262.73022 31.675013 262.63647L31.815638 263.66772Q31.346888 263.73022 31.081263 264.07397Q30.800013 264.4021 30.800013 265.0271Q30.800013 265.74585 31.050013 266.05835Q31.284388 266.37085 31.612513 266.37085Q31.815638 266.37085 31.971888 266.24585Q32.14376 266.10522 32.253136 265.8396Q32.315636 265.68335 32.51876 264.9021Q32.83126 263.7771 33.01876 263.3396Q33.20626 262.9021 33.565636 262.6521Q33.92501 262.4021 34.471886 262.4021Q35.003136 262.4021 35.471886 262.7146Q35.92501 263.01147 36.190636 263.5896Q36.440636 264.16772 36.440636 264.9021Q36.440636 266.12085 35.940636 266.76147Q35.42501 267.38647 34.440636 267.55835ZM32.92501 252.98021L31.925013 252.98021L31.909388 249.35521L35.096886 249.35521Q35.76876 250.18333 36.11251 251.07396Q36.440636 251.96458 36.440636 252.90208Q36.440636 254.16771 35.909386 255.21458Q35.36251 256.24585 34.346886 256.7771Q33.315636 257.29272 32.05001 257.29272Q30.784388 257.29272 29.706263 256.7771Q28.612513 256.24585 28.096888 255.26146Q27.565638 254.27708 27.565638 252.99583Q27.565638 252.05833 27.862513 251.30833Q28.159388 250.55833 28.706263 250.13646Q29.237513 249.69896 30.112513 249.48021L30.393763 250.49583Q29.737513 250.69896 29.362513 250.99583Q28.987513 251.27708 28.768763 251.80833Q28.534388 252.33958 28.534388 252.98021Q28.534388 253.76146 28.768763 254.33958Q29.003138 254.90208 29.393763 255.26146Q29.784388 255.60521 30.253138 255.79271Q31.050013 256.12085 31.971888 256.12085Q33.128136 256.12085 33.909386 255.73021Q34.67501 255.32396 35.05001 254.57396Q35.42501 253.82396 35.42501 252.96458Q35.42501 252.23021 35.14376 251.52708Q34.846886 250.82396 34.534386 250.46458L32.92501 250.46458L32.92501 252.98021ZM35.534386 244.07396Q36.034386 244.66771 36.23751 245.21458Q36.440636 245.74583 36.440636 246.37083Q36.440636 247.40208 35.940636 247.94896Q35.440636 248.49583 34.659386 248.49583Q34.20626 248.49583 33.83126 248.29271Q33.440636 248.08958 33.221886 247.74583Q32.98751 247.40208 32.878136 246.98021Q32.784386 246.68333 32.70626 246.04271Q32.565636 244.77708 32.346886 244.16771Q32.128136 244.16771 32.08126 244.16771Q31.425013 244.16771 31.159388 244.46458Q30.815638 244.87083 30.815638 245.66771Q30.815638 246.40208 31.081263 246.76146Q31.331263 247.12083 31.987513 247.29271L31.846888 248.32396Q31.190638 248.18333 30.784388 247.85521Q30.378138 247.52708 30.159388 246.91771Q29.940638 246.30833 29.940638 245.51146Q29.940638 244.71458 30.128138 244.21458Q30.315638 243.71458 30.596888 243.48021Q30.878138 243.24583 31.315638 243.15208Q31.581263 243.10521 32.284386 243.10521L33.690636 243.10521Q35.159386 243.10521 35.55001 243.04271Q35.940636 242.96458 36.30001 242.76146L36.30001 243.87083Q35.971886 244.02708 35.534386 244.07396ZM33.17501 244.16771Q33.409386 244.74583 33.58126 245.88646Q33.67501 246.54271 33.80001 246.80833Q33.909386 247.07396 34.128136 247.23021Q34.346886 247.37083 34.628136 247.37083Q35.05001 247.37083 35.33126 247.05833Q35.61251 246.73021 35.61251 246.12083Q35.61251 245.51146 35.346886 245.04271Q35.08126 244.55833 34.61251 244.33958Q34.253136 244.16771 33.565636 244.16771L33.17501 244.16771ZM28.925013 241.13646L27.706263 241.13646L27.706263 240.07396L28.925013 240.07396L28.925013 241.13646ZM36.30001 241.13646L30.081263 241.13646L30.081263 240.07396L36.30001 240.07396L36.30001 241.13646ZM36.30001 238.13646L30.081263 238.13646L30.081263 237.19896L30.956263 237.19896Q29.940638 236.51146 29.940638 235.21458Q29.940638 234.65208 30.143763 234.18333Q30.346888 233.69896 30.675013 233.46458Q31.003138 233.23021 31.440638 233.13646Q31.737513 233.08958 32.471886 233.08958L36.30001 233.08958L36.30001 234.13646L32.51876 234.13646Q31.862513 234.13646 31.550013 234.26146Q31.237513 234.38646 31.050013 234.69896Q30.846888 235.01146 30.846888 235.43333Q30.846888 236.10521 31.284388 236.60521Q31.706263 237.08958 32.89376 237.08958L36.30001 237.08958L36.30001 238.13646ZM38.83126 226.12083Q37.721886 226.99583 36.253136 227.60521Q34.76876 228.19896 33.190636 228.19896Q31.800013 228.19896 30.518763 227.76146Q29.034388 227.23021 27.565638 226.12083L27.565638 225.37083Q28.784388 226.07396 29.300013 226.30833Q30.112513 226.66771 30.987513 226.87083Q32.08126 227.12083 33.190636 227.12083Q36.01876 227.12083 38.83126 225.37083L38.83126 226.12083ZM36.815636 224.33958L36.971886 223.30833Q37.440636 223.24583 37.659386 222.94896Q37.95626 222.55833 37.95626 221.88646Q37.95626 221.15208 37.659386 220.76146Q37.36251 220.35521 36.846886 220.21458Q36.51876 220.12083 35.48751 220.13646Q36.30001 220.82396 36.30001 221.85521Q36.30001 223.13646 35.378136 223.83958Q34.440636 224.54271 33.159386 224.54271Q32.26876 224.54271 31.518763 224.23021Q30.753138 223.90208 30.346888 223.29271Q29.940638 222.68333 29.940638 221.85521Q29.940638 220.74583 30.831263 220.02708L30.081263 220.02708L30.081263 219.05833L35.45626 219.05833Q36.909386 219.05833 37.51876 219.35521Q38.128136 219.65208 38.471886 220.29271Q38.83126 220.93333 38.83126 221.87083Q38.83126 222.98021 38.33126 223.66771Q37.83126 224.35521 36.815636 224.33958ZM33.08126 223.46458Q34.30001 223.46458 34.86251 222.98021Q35.42501 222.49583 35.42501 221.76146Q35.42501 221.02708 34.86251 220.54271Q34.30001 220.04271 33.11251 220.04271Q31.971888 220.04271 31.393763 220.55833Q30.815638 221.05833 30.815638 221.77708Q30.815638 222.48021 31.393763 222.98021Q31.956263 223.46458 33.08126 223.46458ZM38.83126 216.44897L38.83126 217.19897Q36.01876 215.44897 33.190636 215.44897Q32.096886 215.44897 31.003138 215.69897Q30.128138 215.9021 29.315638 216.26147Q28.800013 216.49585 27.565638 217.19897L27.565638 216.44897Q29.034388 215.35522 30.518763 214.82397Q31.800013 214.37085 33.190636 214.37085Q34.76876 214.37085 36.253136 214.98022Q37.721886 215.5896 38.83126 216.44897Z" fill-rule="nonzero"/><path fill="#000000" d="M71.8 428.46564Q71.8 426.9344 72.1125 426.0125Q72.425 425.075 73.03438 424.575Q73.65938 424.075 74.59688 424.075Q75.28438 424.075 75.8 424.35626Q76.33125 424.6375 76.675 425.16876Q77.01875 425.6844 77.20625 426.4344Q77.39375 427.1844 77.39375 428.46564Q77.39375 429.98126 77.08125 430.90314Q76.78438 431.825 76.15938 432.34064Q75.55 432.84064 74.59688 432.84064Q73.3625 432.84064 72.64375 431.95Q71.8 430.8875 71.8 428.46564ZM72.87813 428.46564Q72.87813 430.575 73.37813 431.27814Q73.87813 431.98126 74.59688 431.98126Q75.33125 431.98126 75.81563 431.27814Q76.31563 430.575 76.31563 428.46564Q76.31563 426.34064 75.81563 425.65314Q75.33125 424.95 74.58125 424.95Q73.8625 424.95 73.425 425.5594Q72.87813 426.34064 72.87813 428.46564Z" fill-rule="nonzero"/><path fill="#000000" d="M77.34688 309.83994L77.34688 310.85556L71.65938 310.85556Q71.65938 310.48056 71.78438 310.1212Q72.00313 309.54306 72.47188 308.98056Q72.95625 308.41806 73.8625 307.6837Q75.26875 306.52744 75.75313 305.85556Q76.25313 305.1837 76.25313 304.58994Q76.25313 303.96494 75.8 303.54306Q75.34688 303.10556 74.62813 303.10556Q73.8625 303.10556 73.40938 303.5587Q72.95625 304.0118 72.94063 304.8243L71.8625 304.71494Q71.97188 303.4962 72.69063 302.8712Q73.425 302.23056 74.65938 302.23056Q75.89375 302.23056 76.6125 302.91806Q77.33125 303.60556 77.33125 304.6212Q77.33125 305.1368 77.1125 305.6368Q76.90938 306.1212 76.40938 306.6837Q75.925 307.23056 74.8 308.1837Q73.84688 308.98056 73.56563 309.27744Q73.3 309.5587 73.12813 309.83994L77.34688 309.83994Z" fill-rule="nonzero"/><path fill="#000000" d="M75.175 189.01111L75.175 186.94861L71.45625 186.94861L71.45625 185.97986L75.37813 180.41736L76.2375 180.41736L76.2375 185.97986L77.39375 185.97986L77.39375 186.94861L76.2375 186.94861L76.2375 189.01111L75.175 189.01111ZM75.175 185.97986L75.175 182.12048L72.4875 185.97986L75.175 185.97986Z" fill-rule="nonzero"/><path fill="#000000" d="M77.26875 60.68229L76.22188 60.760414Q76.08125 60.135414 75.83125 59.854164Q75.39375 59.40104 74.76875 59.40104Q74.26875 59.40104 73.87813 59.68229Q73.39375 60.05729 73.09688 60.760414Q72.81563 61.447914 72.8 62.729164Q73.175 62.15104 73.72188 61.86979Q74.28438 61.58854 74.89375 61.58854Q75.94063 61.58854 76.675 62.36979Q77.425 63.15104 77.425 64.36979Q77.425 65.18229 77.06563 65.885414Q76.72188 66.572914 76.1125 66.947914Q75.50313 67.30729 74.7375 67.30729Q73.40938 67.30729 72.58125 66.33854Q71.75313 65.36979 71.75313 63.15104Q71.75313 60.65104 72.675 59.52604Q73.47188 58.541664 74.83125 58.541664Q75.84688 58.541664 76.4875 59.11979Q77.14375 59.68229 77.26875 60.68229ZM72.97188 64.385414Q72.97188 64.93229 73.19063 65.43229Q73.425 65.916664 73.83125 66.18229Q74.25313 66.447914 74.72188 66.447914Q75.37813 66.447914 75.8625 65.916664Q76.34688 65.36979 76.34688 64.447914Q76.34688 63.55729 75.8625 63.041664Q75.39375 62.52604 74.675 62.52604Q73.95625 62.52604 73.45625 63.041664Q72.97188 63.55729 72.97188 64.385414Z" fill-rule="nonzero"/><path fill="#000000" d="M93.75393 444.6844L93.75393 445.7L88.06643 445.7Q88.06643 445.325 88.19143 444.96564Q88.41018 444.3875 88.87893 443.825Q89.363304 443.2625 90.269554 442.52814Q91.675804 441.3719 92.16018 440.7Q92.66018 440.02814 92.66018 439.4344Q92.66018 438.8094 92.207054 438.3875Q91.75393 437.95 91.03518 437.95Q90.269554 437.95 89.81643 438.40314Q89.363304 438.85626 89.34768 439.66876L88.269554 439.5594Q88.37893 438.34064 89.09768 437.71564Q89.832054 437.075 91.06643 437.075Q92.300804 437.075 93.019554 437.7625Q93.738304 438.45 93.738304 439.46564Q93.738304 439.98126 93.519554 440.48126Q93.31643 440.96564 92.81643 441.52814Q92.332054 442.075 91.207054 443.02814Q90.25393 443.825 89.97268 444.1219Q89.707054 444.40314 89.53518 444.6844L93.75393 444.6844Z" fill-rule="nonzero"/><path fill="#000000" d="M238.23718 445.7L238.23718 443.6375L234.51843 443.6375L234.51843 442.66876L238.4403 437.10626L239.29968 437.10626L239.29968 442.66876L240.45593 442.66876L240.45593 443.6375L239.29968 443.6375L239.29968 445.7L238.23718 445.7ZM238.23718 442.66876L238.23718 438.8094L235.54968 442.66876L238.23718 442.66876Z" fill-rule="nonzero"/><path fill="#000000" d="M386.98605 439.21564L385.93918 439.29376Q385.79855 438.66876 385.54855 438.3875Q385.11105 437.9344 384.48605 437.9344Q383.98605 437.9344 383.59543 438.21564Q383.11105 438.59064 382.81418 439.29376Q382.53293 439.98126 382.5173 441.2625Q382.8923 440.6844 383.43918 440.40314Q384.00168 440.1219 384.61105 440.1219Q385.65793 440.1219 386.3923 440.90314Q387.1423 441.6844 387.1423 442.90314Q387.1423 443.71564 386.78293 444.41876Q386.43918 445.10626 385.8298 445.48126Q385.22043 445.84064 384.4548 445.84064Q383.12668 445.84064 382.29855 444.8719Q381.47043 443.90314 381.47043 441.6844Q381.47043 439.1844 382.3923 438.0594Q383.18918 437.075 384.54855 437.075Q385.56418 437.075 386.2048 437.65314Q386.86105 438.21564 386.98605 439.21564ZM382.68918 442.91876Q382.68918 443.46564 382.90793 443.96564Q383.1423 444.45 383.54855 444.71564Q383.97043 444.98126 384.43918 444.98126Q385.09543 444.98126 385.5798 444.45Q386.06418 443.90314 386.06418 442.98126Q386.06418 442.09064 385.5798 441.575Q385.11105 441.0594 384.3923 441.0594Q383.67355 441.0594 383.17355 441.575Q382.68918 442.09064 382.68918 442.91876Z" fill-rule="nonzero"/><path fill="#000000" d="M529.7974 441.04376Q529.1412 440.79376 528.81305 440.35626Q528.50055 439.90314 528.50055 439.29376Q528.50055 438.35626 529.1724 437.71564Q529.8599 437.075 530.9693 437.075Q532.0943 437.075 532.7818 437.73126Q533.4693 438.3875 533.4693 439.325Q533.4693 439.91876 533.1568 440.35626Q532.8443 440.79376 532.2037 441.04376Q533.00055 441.29376 533.4068 441.8719Q533.81305 442.45 533.81305 443.2469Q533.81305 444.34064 533.0318 445.09064Q532.2662 445.84064 530.9849 445.84064Q529.7193 445.84064 528.93805 445.09064Q528.1568 444.34064 528.1568 443.21564Q528.1568 442.3719 528.5787 441.8094Q529.0162 441.2469 529.7974 441.04376ZM529.5787 439.2469Q529.5787 439.85626 529.9693 440.2469Q530.37555 440.6375 531.00055 440.6375Q531.6099 440.6375 532.00055 440.2625Q532.3912 439.8719 532.3912 439.3094Q532.3912 438.73126 531.9849 438.34064Q531.5787 437.9344 530.9849 437.9344Q530.37555 437.9344 529.9693 438.325Q529.5787 438.71564 529.5787 439.2469ZM529.25055 443.21564Q529.25055 443.66876 529.4537 444.09064Q529.6724 444.5125 530.0943 444.7469Q530.5162 444.98126 531.00055 444.98126Q531.75055 444.98126 532.2349 444.4969Q532.7349 444.0125 532.7349 443.2625Q532.7349 442.4969 532.2349 441.9969Q531.7349 441.4969 530.9693 441.4969Q530.2193 441.4969 529.7349 441.9969Q529.25055 442.48126 529.25055 443.21564Z" fill-rule="nonzero"/><path fill="#000000" d="M675.2963 445.7L674.24945 445.7L674.24945 438.98126Q673.8588 439.34064 673.2338 439.71564Q672.62445 440.075 672.1401 440.2469L672.1401 439.23126Q673.0151 438.8094 673.6713 438.23126Q674.3432 437.6375 674.62445 437.075L675.2963 437.075L675.2963 445.7ZM678.3276 441.46564Q678.3276 439.9344 678.6401 439.0125Q678.9526 438.075 679.56195 437.575Q680.18695 437.075 681.12445 437.075Q681.81195 437.075 682.3276 437.35626Q682.8588 437.6375 683.2026 438.16876Q683.5463 438.6844 683.7338 439.4344Q683.9213 440.1844 683.9213 441.46564Q683.9213 442.98126 683.6088 443.90314Q683.31195 444.825 682.68695 445.34064Q682.0776 445.84064 681.12445 445.84064Q679.8901 445.84064 679.1713 444.95Q678.3276 443.8875 678.3276 441.46564ZM679.4057 441.46564Q679.4057 443.575 679.9057 444.27814Q680.4057 444.98126 681.12445 444.98126Q681.8588 444.98126 682.3432 444.27814Q682.8432 443.575 682.8432 441.46564Q682.8432 439.34064 682.3432 438.65314Q681.8588 437.95 681.1088 437.95Q680.3901 437.95 679.9526 438.5594Q679.4057 439.34064 679.4057 441.46564Z" fill-rule="nonzero"/><path fill="#000000" d="M821.9514 445.7L820.90454 445.7L820.90454 438.98126Q820.5139 439.34064 819.8889 439.71564Q819.27954 440.075 818.79517 440.2469L818.79517 439.23126Q819.67017 438.8094 820.3264 438.23126Q820.9983 437.6375 821.27954 437.075L821.9514 437.075L821.9514 445.7ZM830.52954 444.6844L830.52954 445.7L824.84204 445.7Q824.84204 445.325 824.96704 444.96564Q825.1858 444.3875 825.65454 443.825Q826.1389 443.2625 827.04517 442.52814Q828.4514 441.3719 828.9358 440.7Q829.4358 440.02814 829.4358 439.4344Q829.4358 438.8094 828.98267 438.3875Q828.52954 437.95 827.8108 437.95Q827.04517 437.95 826.59204 438.40314Q826.1389 438.85626 826.1233 439.66876L825.04517 439.5594Q825.15454 438.34064 825.8733 437.71564Q826.60767 437.075 827.84204 437.075Q829.0764 437.075 829.79517 437.7625Q830.5139 438.45 830.5139 439.46564Q830.5139 439.98126 830.29517 440.48126Q830.09204 440.96564 829.59204 441.52814Q829.10767 442.075 827.98267 443.02814Q827.02954 443.825 826.7483 444.1219Q826.48267 444.40314 826.3108 444.6844L830.52954 444.6844Z" fill-rule="nonzero"/><path fill="#000000" d="M968.60657 445.7L967.5597 445.7L967.5597 438.98126Q967.16907 439.34064 966.54407 439.71564Q965.9347 440.075 965.4503 440.2469L965.4503 439.23126Q966.3253 438.8094 966.98157 438.23126Q967.65344 437.6375 967.9347 437.075L968.60657 437.075L968.60657 445.7ZM975.0128 445.7L975.0128 443.6375L971.29407 443.6375L971.29407 442.66876L975.21594 437.10626L976.0753 437.10626L976.0753 442.66876L977.23157 442.66876L977.23157 443.6375L976.0753 443.6375L976.0753 445.7L975.0128 445.7ZM975.0128 442.66876L975.0128 438.8094L972.3253 442.66876L975.0128 442.66876Z" fill-rule="nonzero"/><path fill="#000000" d="M1115.2617 445.7L1114.2148 445.7L1114.2148 438.98126Q1113.8242 439.34064 1113.1992 439.71564Q1112.5898 440.075 1112.1055 440.2469L1112.1055 439.23126Q1112.9805 438.8094 1113.6367 438.23126Q1114.3086 437.6375 1114.5898 437.075L1115.2617 437.075L1115.2617 445.7ZM1123.7617 439.21564L1122.7148 439.29376Q1122.5742 438.66876 1122.3242 438.3875Q1121.8867 437.9344 1121.2617 437.9344Q1120.7617 437.9344 1120.3711 438.21564Q1119.8867 438.59064 1119.5898 439.29376Q1119.3086 439.98126 1119.293 441.2625Q1119.668 440.6844 1120.2148 440.40314Q1120.7773 440.1219 1121.3867 440.1219Q1122.4336 440.1219 1123.168 440.90314Q1123.918 441.6844 1123.918 442.90314Q1123.918 443.71564 1123.5586 444.41876Q1123.2148 445.10626 1122.6055 445.48126Q1121.9961 445.84064 1121.2305 445.84064Q1119.9023 445.84064 1119.0742 444.8719Q1118.2461 443.90314 1118.2461 441.6844Q1118.2461 439.1844 1119.168 438.0594Q1119.9648 437.075 1121.3242 437.075Q1122.3398 437.075 1122.9805 437.65314Q1123.6367 438.21564 1123.7617 439.21564ZM1119.4648 442.91876Q1119.4648 443.46564 1119.6836 443.96564Q1119.918 444.45 1120.3242 444.71564Q1120.7461 444.98126 1121.2148 444.98126Q1121.8711 444.98126 1122.3555 444.45Q1122.8398 443.90314 1122.8398 442.98126Q1122.8398 442.09064 1122.3555 441.575Q1121.8867 441.0594 1121.168 441.0594Q1120.4492 441.0594 1119.9492 441.575Q1119.4648 442.09064 1119.4648 442.91876Z" fill-rule="nonzero"/><path fill="#4285f4" d="M467.0 32.3C467.0 35.61371 464.31372 38.3 461.0 38.3C457.68628 38.3 455.0 35.61371 455.0 32.3C455.0 28.986292 457.68628 26.3 461.0 26.3C464.31372 26.3 467.0 28.986292 467.0 32.3Z" fill-rule="nonzero"/><path fill="#1a1a1a" d="M475.98438 36.3L475.98438 27.70625L481.78125 27.70625L481.78125 28.721874L477.125 28.721874L477.125 31.378124L481.15625 31.378124L481.15625 32.39375L477.125 32.39375L477.125 36.3L475.98438 36.3ZM482.78125 36.3L482.78125 30.08125L483.73438 30.08125L483.73438 31.01875Q484.09375 30.3625 484.39062 30.159374Q484.70312 29.940624 485.07812 29.940624Q485.60938 29.940624 486.15625 30.26875L485.79688 31.253124Q485.40625 31.01875 485.03125 31.01875Q484.67188 31.01875 484.39062 31.2375Q484.125 31.440624 484.01562 31.815624Q483.82812 32.378124 483.82812 33.034374L483.82812 36.3L482.78125 36.3ZM491.04688 34.3L492.14062 34.425Q491.89062 35.378124 491.1875 35.909374Q490.48438 36.440624 489.40625 36.440624Q488.04688 36.440624 487.23438 35.596874Q486.4375 34.753124 486.4375 33.2375Q486.4375 31.675 487.25 30.815624Q488.0625 29.940624 489.34375 29.940624Q490.59375 29.940624 491.375 30.784374Q492.17188 31.628124 492.17188 33.175Q492.17188 33.26875 492.17188 33.45625L487.53125 33.45625Q487.59375 34.4875 488.10938 35.034374Q488.625 35.565624 489.40625 35.565624Q489.98438 35.565624 490.39062 35.26875Q490.8125 34.95625 491.04688 34.3ZM487.59375 32.596874L491.0625 32.596874Q491.0 31.8 490.67188 31.409374Q490.15625 30.8 489.35938 30.8Q488.625 30.8 488.125 31.284374Q487.64062 31.76875 487.59375 32.596874ZM498.04688 34.3L499.14062 34.425Q498.89062 35.378124 498.1875 35.909374Q497.48438 36.440624 496.40625 36.440624Q495.04688 36.440624 494.23438 35.596874Q493.4375 34.753124 493.4375 33.2375Q493.4375 31.675 494.25 30.815624Q495.0625 29.940624 496.34375 29.940624Q497.59375 29.940624 498.375 30.784374Q499.17188 31.628124 499.17188 33.175Q499.17188 33.26875 499.17188 33.45625L494.53125 33.45625Q494.59375 34.4875 495.10938 35.034374Q495.625 35.565624 496.40625 35.565624Q496.98438 35.565624 497.39062 35.26875Q497.8125 34.95625 498.04688 34.3ZM494.59375 32.596874L498.0625 32.596874Q498.0 31.8 497.67188 31.409374Q497.15625 30.8 496.35938 30.8Q495.625 30.8 495.125 31.284374Q494.64062 31.76875 494.59375 32.596874ZM500.23438 36.3L500.23438 35.440624L504.20312 30.89375Q503.51562 30.925 503.0 30.925L500.46875 30.925L500.46875 30.08125L505.5625 30.08125L505.5625 30.76875L502.1875 34.721874L501.53125 35.440624Q502.25 35.39375 502.85938 35.39375L505.75 35.39375L505.75 36.3L500.23438 36.3ZM510.04688 34.3L511.14062 34.425Q510.89062 35.378124 510.1875 35.909374Q509.48438 36.440624 508.40625 36.440624Q507.04688 36.440624 506.23438 35.596874Q505.4375 34.753124 505.4375 33.2375Q505.4375 31.675 506.25 30.815624Q507.0625 29.940624 508.34375 29.940624Q509.59375 29.940624 510.375 30.784374Q511.17188 31.628124 511.17188 33.175Q511.17188 33.26875 511.17188 33.45625L506.53125 33.45625Q506.59375 34.4875 507.10938 35.034374Q507.625 35.565624 508.40625 35.565624Q508.98438 35.565624 509.39062 35.26875Q509.8125 34.95625 510.04688 34.3ZM506.59375 32.596874L510.0625 32.596874Q510.0 31.8 509.67188 31.409374Q509.15625 30.8 508.35938 30.8Q507.625 30.8 507.125 31.284374Q506.64062 31.76875 506.59375 32.596874ZM512.78125 36.3L512.78125 30.08125L513.7344 30.08125L513.7344 31.01875Q514.09375 30.3625 514.3906 30.159374Q514.7031 29.940624 515.0781 29.940624Q515.6094 29.940624 516.15625 30.26875L515.7969 31.253124Q515.40625 31.01875 515.03125 31.01875Q514.6719 31.01875 514.3906 31.2375Q514.125 31.440624 514.0156 31.815624Q513.8281 32.378124 513.8281 33.034374L513.8281 36.3L512.78125 36.3Z" fill-rule="nonzero"/><path fill="#ea4335" d="M544.0 32.3C544.0 35.61371 541.3137 38.3 538.0 38.3C534.6863 38.3 532.0 35.61371 532.0 32.3C532.0 28.986292 534.6863 26.3 538.0 26.3C541.3137 26.3 544.0 28.986292 544.0 32.3Z" fill-rule="nonzero"/><path fill="#1a1a1a" d="M552.9531 36.3L552.9531 27.70625L559.15625 27.70625L559.15625 28.721874L554.09375 28.721874L554.09375 31.346874L558.84375 31.346874L558.84375 32.3625L554.09375 32.3625L554.09375 35.284374L559.3594 35.284374L559.3594 36.3L552.9531 36.3ZM560.09375 36.3L562.3594 33.065624L560.2656 30.08125L561.5781 30.08125L562.53125 31.534374Q562.7969 31.95625 562.96875 32.2375Q563.21875 31.846874 563.4375 31.55L564.4844 30.08125L565.75 30.08125L563.59375 33.003124L565.90625 36.3L564.625 36.3L563.34375 34.3625L563.0 33.846874L561.3594 36.3L560.09375 36.3ZM565.7969 38.690624L565.7969 30.08125L566.75 30.08125L566.75 30.878124Q567.09375 30.409374 567.5156 30.175Q567.9531 29.940624 568.5625 29.940624Q569.3594 29.940624 569.96875 30.346874Q570.5781 30.753124 570.875 31.503124Q571.1875 32.253124 571.1875 33.14375Q571.1875 34.096874 570.84375 34.8625Q570.5156 35.628124 569.8594 36.034374Q569.2031 36.440624 568.4844 36.440624Q567.9531 36.440624 567.53125 36.221874Q567.1094 35.9875 566.84375 35.659374L566.84375 38.690624L565.7969 38.690624ZM566.75 33.221874Q566.75 34.425 567.2344 35.003124Q567.71875 35.565624 568.40625 35.565624Q569.1094 35.565624 569.6094 34.971874Q570.1094 34.378124 570.1094 33.128124Q570.1094 31.940624 569.625 31.3625Q569.1406 30.76875 568.4531 30.76875Q567.78125 30.76875 567.2656 31.39375Q566.75 32.01875 566.75 33.221874ZM572.40625 33.190624Q572.40625 31.45625 573.3594 30.628124Q574.15625 29.940624 575.3125 29.940624Q576.59375 29.940624 577.40625 30.784374Q578.2344 31.6125 578.2344 33.096874Q578.2344 34.3 577.875 34.9875Q577.5156 35.675 576.8125 36.065624Q576.125 36.440624 575.3125 36.440624Q574.0156 36.440624 573.2031 35.6125Q572.40625 34.76875 572.40625 33.190624ZM573.4844 33.190624Q573.4844 34.378124 574.0 34.971874Q574.53125 35.565624 575.3125 35.565624Q576.1094 35.565624 576.625 34.971874Q577.1406 34.378124 577.1406 33.159374Q577.1406 32.003124 576.6094 31.409374Q576.09375 30.815624 575.3125 30.815624Q574.53125 30.815624 574.0 31.409374Q573.4844 31.9875 573.4844 33.190624ZM579.375 34.440624L580.40625 34.284374Q580.5 34.909374 580.8906 35.2375Q581.2969 35.565624 582.03125 35.565624Q582.75 35.565624 583.09375 35.284374Q583.4531 34.9875 583.4531 34.58125Q583.4531 34.221874 583.1406 34.01875Q582.9219 33.878124 582.0625 33.659374Q580.90625 33.3625 580.4531 33.159374Q580.0156 32.940624 579.78125 32.565624Q579.5469 32.190624 579.5469 31.721874Q579.5469 31.315624 579.7344 30.95625Q579.9219 30.596874 580.25 30.3625Q580.5 30.190624 580.9219 30.065624Q581.34375 29.940624 581.84375 29.940624Q582.5625 29.940624 583.1094 30.159374Q583.6719 30.3625 583.9375 30.721874Q584.2031 31.08125 584.2969 31.675L583.2656 31.815624Q583.2031 31.346874 582.8594 31.08125Q582.53125 30.8 581.90625 30.8Q581.1875 30.8 580.875 31.05Q580.5625 31.284374 580.5625 31.6125Q580.5625 31.815624 580.6875 31.971874Q580.8281 32.14375 581.09375 32.253124Q581.25 32.315624 582.03125 32.51875Q583.15625 32.83125 583.59375 33.01875Q584.03125 33.20625 584.28125 33.565624Q584.53125 33.925 584.53125 34.471874Q584.53125 35.003124 584.21875 35.471874Q583.9219 35.925 583.34375 36.190624Q582.7656 36.440624 582.03125 36.440624Q580.8125 36.440624 580.1719 35.940624Q579.5469 35.425 579.375 34.440624ZM591.0469 34.3L592.1406 34.425Q591.8906 35.378124 591.1875 35.909374Q590.4844 36.440624 589.40625 36.440624Q588.0469 36.440624 587.2344 35.596874Q586.4375 34.753124 586.4375 33.2375Q586.4375 31.675 587.25 30.815624Q588.0625 29.940624 589.34375 29.940624Q590.59375 29.940624 591.375 30.784374Q592.1719 31.628124 592.1719 33.175Q592.1719 33.26875 592.1719 33.45625L587.53125 33.45625Q587.59375 34.4875 588.1094 35.034374Q588.625 35.565624 589.40625 35.565624Q589.9844 35.565624 590.3906 35.26875Q590.8125 34.95625 591.0469 34.3ZM587.59375 32.596874L591.0625 32.596874Q591.0 31.8 590.6719 31.409374Q590.15625 30.8 589.3594 30.8Q588.625 30.8 588.125 31.284374Q587.6406 31.76875 587.59375 32.596874ZM597.8281 36.3L597.8281 35.51875Q597.2344 36.440624 596.09375 36.440624Q595.34375 36.440624 594.71875 36.034374Q594.09375 35.6125 593.75 34.878124Q593.40625 34.14375 593.40625 33.190624Q593.40625 32.26875 593.71875 31.503124Q594.03125 30.7375 594.65625 30.346874Q595.28125 29.940624 596.0469 29.940624Q596.6094 29.940624 597.0469 30.175Q597.4844 30.409374 597.7656 30.784374L597.7656 27.70625L598.8125 27.70625L598.8125 36.3L597.8281 36.3ZM594.5 33.190624Q594.5 34.39375 595.0 34.9875Q595.5 35.565624 596.1875 35.565624Q596.875 35.565624 597.3594 35.003124Q597.84375 34.440624 597.84375 33.284374Q597.84375 32.003124 597.34375 31.409374Q596.8594 30.815624 596.1406 30.815624Q595.4375 30.815624 594.96875 31.39375Q594.5 31.95625 594.5 33.190624Z" fill-rule="nonzero"/><path fill="#fbbc04" d="M628.0 32.3C628.0 35.61371 625.3137 38.3 622.0 38.3C618.6863 38.3 616.0 35.61371 616.0 32.3C616.0 28.986292 618.6863 26.3 622.0 26.3C625.3137 26.3 628.0 28.986292 628.0 32.3Z" fill-rule="nonzero"/><path fill="#1a1a1a" d="M636.9219 36.3L636.9219 27.70625L639.8906 27.70625Q640.8906 27.70625 641.4219 27.83125Q642.15625 28.003124 642.6719 28.440624Q643.3594 29.01875 643.6875 29.925Q644.03125 30.815624 644.03125 31.95625Q644.03125 32.940624 643.7969 33.690624Q643.5781 34.440624 643.21875 34.940624Q642.8594 35.440624 642.4219 35.721874Q642.0 36.003124 641.40625 36.159374Q640.8125 36.3 640.03125 36.3L636.9219 36.3ZM638.0625 35.284374L639.8906 35.284374Q640.75 35.284374 641.2344 35.128124Q641.71875 34.971874 642.0 34.675Q642.40625 34.284374 642.625 33.596874Q642.8594 32.909374 642.8594 31.940624Q642.8594 30.596874 642.40625 29.878124Q641.96875 29.14375 641.34375 28.89375Q640.875 28.721874 639.875 28.721874L638.0625 28.721874L638.0625 35.284374ZM650.0469 34.3L651.1406 34.425Q650.8906 35.378124 650.1875 35.909374Q649.4844 36.440624 648.40625 36.440624Q647.0469 36.440624 646.2344 35.596874Q645.4375 34.753124 645.4375 33.2375Q645.4375 31.675 646.25 30.815624Q647.0625 29.940624 648.34375 29.940624Q649.59375 29.940624 650.375 30.784374Q651.1719 31.628124 651.1719 33.175Q651.1719 33.26875 651.1719 33.45625L646.53125 33.45625Q646.59375 34.4875 647.1094 35.034374Q647.625 35.565624 648.40625 35.565624Q648.9844 35.565624 649.3906 35.26875Q649.8125 34.95625 650.0469 34.3ZM646.59375 32.596874L650.0625 32.596874Q650.0 31.8 649.6719 31.409374Q649.15625 30.8 648.3594 30.8Q647.625 30.8 647.125 31.284374Q646.6406 31.76875 646.59375 32.596874ZM652.375 34.440624L653.40625 34.284374Q653.5 34.909374 653.8906 35.2375Q654.2969 35.565624 655.03125 35.565624Q655.75 35.565624 656.09375 35.284374Q656.4531 34.9875 656.4531 34.58125Q656.4531 34.221874 656.1406 34.01875Q655.9219 33.878124 655.0625 33.659374Q653.90625 33.3625 653.4531 33.159374Q653.0156 32.940624 652.78125 32.565624Q652.5469 32.190624 652.5469 31.721874Q652.5469 31.315624 652.7344 30.95625Q652.9219 30.596874 653.25 30.3625Q653.5 30.190624 653.9219 30.065624Q654.34375 29.940624 654.84375 29.940624Q655.5625 29.940624 656.1094 30.159374Q656.6719 30.3625 656.9375 30.721874Q657.2031 31.08125 657.2969 31.675L656.2656 31.815624Q656.2031 31.346874 655.8594 31.08125Q655.53125 30.8 654.90625 30.8Q654.1875 30.8 653.875 31.05Q653.5625 31.284374 653.5625 31.6125Q653.5625 31.815624 653.6875 31.971874Q653.8281 32.14375 654.09375 32.253124Q654.25 32.315624 655.03125 32.51875Q656.15625 32.83125 656.59375 33.01875Q657.03125 33.20625 657.28125 33.565624Q657.53125 33.925 657.53125 34.471874Q657.53125 35.003124 657.21875 35.471874Q656.9219 35.925 656.34375 36.190624Q655.7656 36.440624 655.03125 36.440624Q653.8125 36.440624 653.1719 35.940624Q652.5469 35.425 652.375 34.440624ZM659.7969 28.925L659.7969 27.70625L660.8594 27.70625L660.8594 28.925L659.7969 28.925ZM659.7969 36.3L659.7969 30.08125L660.8594 30.08125L660.8594 36.3L659.7969 36.3ZM666.8594 34.01875L667.8906 34.159374Q667.71875 35.221874 667.0156 35.83125Q666.3125 36.440624 665.2969 36.440624Q664.0156 36.440624 663.2344 35.6125Q662.46875 34.76875 662.46875 33.20625Q662.46875 32.20625 662.7969 31.45625Q663.1406 30.690624 663.8125 30.315624Q664.5 29.940624 665.3125 29.940624Q666.3125 29.940624 666.9531 30.45625Q667.6094 30.95625 667.7969 31.909374L666.7656 32.065624Q666.625 31.440624 666.25 31.128124Q665.875 30.8 665.34375 30.8Q664.5469 30.8 664.0469 31.378124Q663.5469 31.940624 663.5469 33.175Q663.5469 34.440624 664.03125 35.003124Q664.5156 35.565624 665.28125 35.565624Q665.90625 35.565624 666.3125 35.190624Q666.7344 34.815624 666.8594 34.01875ZM672.8594 34.01875L673.8906 34.159374Q673.71875 35.221874 673.0156 35.83125Q672.3125 36.440624 671.2969 36.440624Q670.0156 36.440624 669.2344 35.6125Q668.46875 34.76875 668.46875 33.20625Q668.46875 32.20625 668.7969 31.45625Q669.1406 30.690624 669.8125 30.315624Q670.5 29.940624 671.3125 29.940624Q672.3125 29.940624 672.9531 30.45625Q673.6094 30.95625 673.7969 31.909374L672.7656 32.065624Q672.625 31.440624 672.25 31.128124Q671.875 30.8 671.34375 30.8Q670.5469 30.8 670.0469 31.378124Q669.5469 31.940624 669.5469 33.175Q669.5469 34.440624 670.03125 35.003124Q670.5156 35.565624 671.28125 35.565624Q671.90625 35.565624 672.3125 35.190624Q672.7344 34.815624 672.8594 34.01875ZM678.8594 35.534374Q678.2656 36.034374 677.71875 36.2375Q677.1875 36.440624 676.5625 36.440624Q675.53125 36.440624 674.9844 35.940624Q674.4375 35.440624 674.4375 34.659374Q674.4375 34.20625 674.6406 33.83125Q674.84375 33.440624 675.1875 33.221874Q675.53125 32.9875 675.9531 32.878124Q676.25 32.784374 676.8906 32.70625Q678.15625 32.565624 678.7656 32.346874Q678.7656 32.128124 678.7656 32.08125Q678.7656 31.425 678.46875 31.159374Q678.0625 30.815624 677.2656 30.815624Q676.53125 30.815624 676.1719 31.08125Q675.8125 31.33125 675.6406 31.9875L674.6094 31.846874Q674.75 31.190624 675.0781 30.784374Q675.40625 30.378124 676.0156 30.159374Q676.625 29.940624 677.4219 29.940624Q678.21875 29.940624 678.71875 30.128124Q679.21875 30.315624 679.4531 30.596874Q679.6875 30.878124 679.78125 31.315624Q679.8281 31.58125 679.8281 32.284374L679.8281 33.690624Q679.8281 35.159374 679.8906 35.55Q679.96875 35.940624 680.1719 36.3L679.0625 36.3Q678.90625 35.971874 678.8594 35.534374ZM678.7656 33.175Q678.1875 33.409374 677.0469 33.58125Q676.3906 33.675 676.125 33.8Q675.8594 33.909374 675.7031 34.128124Q675.5625 34.346874 675.5625 34.628124Q675.5625 35.05 675.875 35.33125Q676.2031 35.6125 676.8125 35.6125Q677.4219 35.6125 677.8906 35.346874Q678.375 35.08125 678.59375 34.6125Q678.7656 34.253124 678.7656 33.565624L678.7656 33.175ZM684.09375 35.3625L684.25 36.284374Q683.7969 36.378124 683.4531 36.378124Q682.875 36.378124 682.5625 36.20625Q682.25 36.01875 682.1094 35.721874Q681.9844 35.425 681.9844 34.471874L681.9844 30.89375L681.21875 30.89375L681.21875 30.08125L681.9844 30.08125L681.9844 28.534374L683.03125 27.909374L683.03125 30.08125L684.09375 30.08125L684.09375 30.89375L683.03125 30.89375L683.03125 34.534374Q683.03125 34.9875 683.0781 35.1125Q683.1406 35.2375 683.2656 35.315624Q683.3906 35.39375 683.625 35.39375Q683.8125 35.39375 684.09375 35.3625ZM684.40625 33.190624Q684.40625 31.45625 685.3594 30.628124Q686.15625 29.940624 687.3125 29.940624Q688.59375 29.940624 689.40625 30.784374Q690.2344 31.6125 690.2344 33.096874Q690.2344 34.3 689.875 34.9875Q689.5156 35.675 688.8125 36.065624Q688.125 36.440624 687.3125 36.440624Q686.0156 36.440624 685.2031 35.6125Q684.40625 34.76875 684.40625 33.190624ZM685.4844 33.190624Q685.4844 34.378124 686.0 34.971874Q686.53125 35.565624 687.3125 35.565624Q688.1094 35.565624 688.625 34.971874Q689.1406 34.378124 689.1406 33.159374Q689.1406 32.003124 688.6094 31.409374Q688.09375 30.815624 687.3125 30.815624Q686.53125 30.815624 686.0 31.409374Q685.4844 31.9875 685.4844 33.190624ZM691.78125 36.3L691.78125 30.08125L692.7344 30.08125L692.7344 31.01875Q693.09375 30.3625 693.3906 30.159374Q693.7031 29.940624 694.0781 29.940624Q694.6094 29.940624 695.15625 30.26875L694.7969 31.253124Q694.40625 31.01875 694.03125 31.01875Q693.6719 31.01875 693.3906 31.2375Q693.125 31.440624 693.0156 31.815624Q692.8281 32.378124 692.8281 33.034374L692.8281 36.3L691.78125 36.3Z" fill-rule="nonzero"/></svg>