<svg version="1.1" viewBox="0.0 0.0 791.0 490.0" fill="none" stroke="none" stroke-linecap="square" stroke-miterlimit="10" width="791" height="490" xmlns:xlink="http://www.w3.org/1999/xlink" xmlns="http://www.w3.org/2000/svg"><path fill="#ffffff" d="M0 0L791.0 0L791.0 490.0L0 490.0L0 0Z" fill-rule="nonzero"/><path stroke="#333333" stroke-width="1.0" stroke-linecap="butt" d="M83.5 445.5L766.5 445.5" fill-rule="nonzero"/><path stroke="#cccccc" stroke-width="1.0" stroke-linecap="butt" d="M83.5 359.5L766.5 359.5" fill-rule="nonzero"/><path stroke="#cccccc" stroke-width="1.0" stroke-linecap="butt" d="M83.5 273.5L766.5 273.5" fill-rule="nonzero"/><path stroke="#cccccc" stroke-width="1.0" stroke-linecap="butt" d="M83.5 188.5L766.5 188.5" fill-rule="nonzero"/><path stroke="#cccccc" stroke-width="1.0" stroke-linecap="butt" d="M83.5 102.5L766.5 102.5" fill-rule="nonzero"/><path stroke="#e6e6e6" stroke-width="1.0" stroke-linecap="butt" d="M83.5 416.5L766.5 416.5" fill-rule="nonzero"/><path stroke="#e6e6e6" stroke-width="1.0" stroke-linecap="butt" d="M83.5 388.5L766.5 388.5" fill-rule="nonzero"/><path stroke="#e6e6e6" stroke-width="1.0" stroke-linecap="butt" d="M83.5 331.5L766.5 331.5" fill-rule="nonzero"/><path stroke="#e6e6e6" stroke-width="1.0" stroke-linecap="butt" d="M83.5 302.5L766.5 302.5" fill-rule="nonzero"/><path stroke="#e6e6e6" stroke-width="1.0" stroke-linecap="butt" d="M83.5 245.5L766.5 245.5" fill-rule="nonzero"/><path stroke="#e6e6e6" stroke-width="1.0" stroke-linecap="butt" d="M83.5 216.5L766.5 216.5" fill-rule="nonzero"/><path stroke="#e6e6e6" stroke-width="1.0" stroke-linecap="butt" d="M83.5 159.5L766.5 159.5" fill-rule="nonzero"/><path stroke="#e6e6e6" stroke-width="1.0" stroke-linecap="butt" d="M83.5 130.5L766.5 130.5" fill-rule="nonzero"/><clipPath id="id_0"><path d="M83.5 102.166664L766.5 102.166664L766.5 445.5L83.5 445.5L83.5 102.166664Z" clip-rule="nonzero"/></clipPath><path stroke="#000000" stroke-width="2.0" stroke-linecap="butt" stroke-opacity="0.0" clip-path="url(#id_0)" d="M155.0 446.0L122.0 446.0L122.0 360.0C122.0 358.89542 122.89543 358.0 124.0 358.0L153.0 358.0C154.10457 358.0 155.0 358.89542 155.0 360.0Z" fill-rule="nonzero"/><path fill="#4285f4" clip-path="url(#id_0)" d="M155.0 446.0L122.0 446.0L122.0 360.0C122.0 358.89542 122.89543 358.0 124.0 358.0L153.0 358.0C154.10457 358.0 155.0 358.89542 155.0 360.0Z" fill-rule="nonzero"/><path stroke="#000000" stroke-width="2.0" stroke-linecap="butt" stroke-opacity="0.0" clip-path="url(#id_0)" d="M263.0 446.0L230.0 446.0L230.0 368.0C230.0 366.89542 230.89543 366.0 232.0 366.0L261.0 366.0C262.10458 366.0 263.0 366.89542 263.0 368.0Z" fill-rule="nonzero"/><path fill="#4285f4" clip-path="url(#id_0)" d="M263.0 446.0L230.0 446.0L230.0 368.0C230.0 366.89542 230.89543 366.0 232.0 366.0L261.0 366.0C262.10458 366.0 263.0 366.89542 263.0 368.0Z" fill-rule="nonzero"/><path stroke="#000000" stroke-width="2.0" stroke-linecap="butt" stroke-opacity="0.0" clip-path="url(#id_0)" d="M370.0 446.0L337.0 446.0L337.0 363.0C337.0 361.89542 337.89542 361.0 339.0 361.0L368.0 361.0C369.10458 361.0 370.0 361.89542 370.0 363.0Z" fill-rule="nonzero"/><path fill="#4285f4" clip-path="url(#id_0)" d="M370.0 446.0L337.0 446.0L337.0 363.0C337.0 361.89542 337.89542 361.0 339.0 361.0L368.0 361.0C369.10458 361.0 370.0 361.89542 370.0 363.0Z" fill-rule="nonzero"/><path stroke="#000000" stroke-width="2.0" stroke-linecap="butt" stroke-opacity="0.0" clip-path="url(#id_0)" d="M478.0 446.0L445.0 446.0L445.0 375.0C445.0 373.89542 445.89542 373.0 447.0 373.0L476.0 373.0C477.10458 373.0 478.0 373.89542 478.0 375.0Z" fill-rule="nonzero"/><path fill="#4285f4" clip-path="url(#id_0)" d="M478.0 446.0L445.0 446.0L445.0 375.0C445.0 373.89542 445.89542 373.0 447.0 373.0L476.0 373.0C477.10458 373.0 478.0 373.89542 478.0 375.0Z" fill-rule="nonzero"/><path stroke="#000000" stroke-width="2.0" stroke-linecap="butt" stroke-opacity="0.0" clip-path="url(#id_0)" d="M585.0 446.0L552.0 446.0L552.0 362.0C552.0 360.89542 552.89545 360.0 554.0 360.0L583.0 360.0C584.10455 360.0 585.0 360.89542 585.0 362.0Z" fill-rule="nonzero"/><path fill="#4285f4" clip-path="url(#id_0)" d="M585.0 446.0L552.0 446.0L552.0 362.0C552.0 360.89542 552.89545 360.0 554.0 360.0L583.0 360.0C584.10455 360.0 585.0 360.89542 585.0 362.0Z" fill-rule="nonzero"/><path stroke="#000000" stroke-width="2.0" stroke-linecap="butt" stroke-opacity="0.0" clip-path="url(#id_0)" d="M693.0 446.0L660.0 446.0L660.0 366.0C660.0 364.89542 660.89545 364.0 662.0 364.0L691.0 364.0C692.10455 364.0 693.0 364.89542 693.0 366.0Z" fill-rule="nonzero"/><path fill="#3d85c6" fill-opacity="0.7019608" clip-path="url(#id_0)" d="M693.0 446.0L660.0 446.0L660.0 366.0C660.0 364.89542 660.89545 364.0 662.0 364.0L691.0 364.0C692.10455 364.0 693.0 364.89542 693.0 366.0Z" fill-rule="nonzero"/><path stroke="#000000" stroke-width="2.0" stroke-linecap="butt" stroke-opacity="0.0" clip-path="url(#id_0)" d="M190.0 446.0L157.0 446.0L157.0 239.0C157.0 237.89543 157.89543 237.0 159.0 237.0L188.0 237.0C189.10457 237.0 190.0 237.89543 190.0 239.0Z" fill-rule="nonzero"/><path fill="#ea4335" clip-path="url(#id_0)" d="M190.0 446.0L157.0 446.0L157.0 239.0C157.0 237.89543 157.89543 237.0 159.0 237.0L188.0 237.0C189.10457 237.0 190.0 237.89543 190.0 239.0Z" fill-rule="nonzero"/><path stroke="#000000" stroke-width="2.0" stroke-linecap="butt" stroke-opacity="0.0" clip-path="url(#id_0)" d="M298.0 446.0L265.0 446.0L265.0 187.0C265.0 185.89543 265.89542 185.0 267.0 185.0L296.0 185.0C297.10458 185.0 298.0 185.89543 298.0 187.0Z" fill-rule="nonzero"/><path fill="#ea4335" clip-path="url(#id_0)" d="M298.0 446.0L265.0 446.0L265.0 187.0C265.0 185.89543 265.89542 185.0 267.0 185.0L296.0 185.0C297.10458 185.0 298.0 185.89543 298.0 187.0Z" fill-rule="nonzero"/><path stroke="#000000" stroke-width="2.0" stroke-linecap="butt" stroke-opacity="0.0" clip-path="url(#id_0)" d="M405.0 446.0L372.0 446.0L372.0 217.0C372.0 215.89543 372.89542 215.0 374.0 215.0L403.0 215.0C404.10458 215.0 405.0 215.89543 405.0 217.0Z" fill-rule="nonzero"/><path fill="#ea4335" clip-path="url(#id_0)" d="M405.0 446.0L372.0 446.0L372.0 217.0C372.0 215.89543 372.89542 215.0 374.0 215.0L403.0 215.0C404.10458 215.0 405.0 215.89543 405.0 217.0Z" fill-rule="nonzero"/><path stroke="#000000" stroke-width="2.0" stroke-linecap="butt" stroke-opacity="0.0" clip-path="url(#id_0)" d="M513.0 446.0L480.0 446.0L480.0 281.0C480.0 279.89542 480.89542 279.0 482.0 279.0L511.0 279.0C512.10455 279.0 513.0 279.89542 513.0 281.0Z" fill-rule="nonzero"/><path fill="#ea4335" clip-path="url(#id_0)" d="M513.0 446.0L480.0 446.0L480.0 281.0C480.0 279.89542 480.89542 279.0 482.0 279.0L511.0 279.0C512.10455 279.0 513.0 279.89542 513.0 281.0Z" fill-rule="nonzero"/><path stroke="#000000" stroke-width="2.0" stroke-linecap="butt" stroke-opacity="0.0" clip-path="url(#id_0)" d="M620.0 446.0L587.0 446.0L587.0 170.0C587.0 168.89543 587.89545 168.0 589.0 168.0L618.0 168.0C619.10455 168.0 620.0 168.89543 620.0 170.0Z" fill-rule="nonzero"/><path fill="#ea4335" clip-path="url(#id_0)" d="M620.0 446.0L587.0 446.0L587.0 170.0C587.0 168.89543 587.89545 168.0 589.0 168.0L618.0 168.0C619.10455 168.0 620.0 168.89543 620.0 170.0Z" fill-rule="nonzero"/><path stroke="#000000" stroke-width="2.0" stroke-linecap="butt" stroke-opacity="0.0" clip-path="url(#id_0)" d="M728.0 446.0L695.0 446.0L695.0 231.0C695.0 229.89543 695.89545 229.0 697.0 229.0L726.0 229.0C727.10455 229.0 728.0 229.89543 728.0 231.0Z" fill-rule="nonzero"/><path fill="#cc4125" fill-opacity="0.7019608" clip-path="url(#id_0)" d="M728.0 446.0L695.0 446.0L695.0 231.0C695.0 229.89543 695.89545 229.0 697.0 229.0L726.0 229.0C727.10455 229.0 728.0 229.89543 728.0 231.0Z" fill-rule="nonzero"/><path fill="#000000" d="M35.5 326.53644L29.28125 326.53644L29.28125 325.59894L30.15625 325.59894Q29.6875 325.30206 29.421875 324.8177Q29.140625 324.3333 29.140625 323.7083Q29.140625 323.0208 29.421875 322.5833Q29.703125 322.1302 30.21875 321.9583Q29.140625 321.2083 29.140625 320.03644Q29.140625 319.09894 29.65625 318.61456Q30.15625 318.11456 31.234375 318.11456L35.5 318.11456L35.5 319.16144L31.578125 319.16144Q30.953125 319.16144 30.671875 319.2708Q30.390625 319.36456 30.21875 319.6302Q30.046875 319.8958 30.046875 320.2708Q30.046875 320.92706 30.484375 321.36456Q30.921875 321.78644 31.890625 321.78644L35.5 321.78644L35.5 322.84894L31.453125 322.84894Q30.75 322.84894 30.40625 323.11456Q30.046875 323.36456 30.046875 323.9427Q30.046875 324.3958 30.28125 324.7708Q30.515625 325.1458 30.96875 325.3177Q31.421875 325.48956 32.265625 325.48956L35.5 325.48956L35.5 326.53644ZM34.734375 311.47394Q35.234375 312.0677 35.4375 312.61456Q35.640625 313.1458 35.640625 313.7708Q35.640625 314.80206 35.140625 315.34894Q34.640625 315.8958 33.859375 315.8958Q33.40625 315.8958 33.03125 315.6927Q32.640625 315.48956 32.421875 315.1458Q32.1875 314.80206 32.078125 314.3802Q31.984375 314.0833 31.90625 313.4427Q31.765625 312.17706 31.546875 311.5677Q31.328125 311.5677 31.28125 311.5677Q30.625 311.5677 30.359375 311.86456Q30.015625 312.2708 30.015625 313.0677Q30.015625 313.80206 30.28125 314.16144Q30.53125 314.5208 31.1875 314.6927L31.046875 315.72394Q30.390625 315.5833 29.984375 315.2552Q29.578125 314.92706 29.359375 314.3177Q29.140625 313.7083 29.140625 312.91144Q29.140625 312.11456 29.328125 311.61456Q29.515625 311.11456 29.796875 310.8802Q30.078125 310.6458 30.515625 310.55206Q30.78125 310.5052 31.484375 310.5052L32.890625 310.5052Q34.359375 310.5052 34.75 310.4427Q35.140625 310.36456 35.5 310.16144L35.5 311.2708Q35.171875 311.42706 34.734375 311.47394ZM32.375 311.5677Q32.609375 312.1458 32.78125 313.28644Q32.875 313.9427 33.0 314.2083Q33.109375 314.47394 33.328125 314.6302Q33.546875 314.7708 33.828125 314.7708Q34.25 314.7708 34.53125 314.4583Q34.8125 314.1302 34.8125 313.5208Q34.8125 312.91144 34.546875 312.4427Q34.28125 311.9583 33.8125 311.73956Q33.453125 311.5677 32.765625 311.5677L32.375 311.5677ZM33.640625 308.9583L33.484375 307.92706Q34.109375 307.8333 34.4375 307.4427Q34.765625 307.03644 34.765625 306.30206Q34.765625 305.5833 34.484375 305.23956Q34.1875 304.8802 33.78125 304.8802Q33.421875 304.8802 33.21875 305.1927Q33.078125 305.41144 32.859375 306.2708Q32.5625 307.42706 32.359375 307.8802Q32.140625 308.3177 31.765625 308.55206Q31.390625 308.78644 30.921875 308.78644Q30.515625 308.78644 30.15625 308.59894Q29.796875 308.41144 29.5625 308.0833Q29.390625 307.8333 29.265625 307.41144Q29.140625 306.98956 29.140625 306.48956Q29.140625 305.7708 29.359375 305.22394Q29.5625 304.66144 29.921875 304.3958Q30.28125 304.1302 30.875 304.03644L31.015625 305.0677Q30.546875 305.1302 30.28125 305.47394Q30.0 305.80206 30.0 306.42706Q30.0 307.1458 30.25 307.4583Q30.484375 307.7708 30.8125 307.7708Q31.015625 307.7708 31.171875 307.6458Q31.34375 307.5052 31.453125 307.23956Q31.515625 307.0833 31.71875 306.30206Q32.03125 305.17706 32.21875 304.73956Q32.40625 304.30206 32.765625 304.05206Q33.125 303.80206 33.671875 303.80206Q34.203125 303.80206 34.671875 304.11456Q35.125 304.41144 35.390625 304.98956Q35.640625 305.5677 35.640625 306.30206Q35.640625 307.5208 35.140625 308.16144Q34.625 308.78644 33.640625 308.9583ZM33.640625 301.9583L33.484375 300.92706Q34.109375 300.8333 34.4375 300.4427Q34.765625 300.03644 34.765625 299.30206Q34.765625 298.5833 34.484375 298.23956Q34.1875 297.8802 33.78125 297.8802Q33.421875 297.8802 33.21875 298.1927Q33.078125 298.41144 32.859375 299.2708Q32.5625 300.42706 32.359375 300.8802Q32.140625 301.3177 31.765625 301.55206Q31.390625 301.78644 30.921875 301.78644Q30.515625 301.78644 30.15625 301.59894Q29.796875 301.41144 29.5625 301.0833Q29.390625 300.8333 29.265625 300.41144Q29.140625 299.98956 29.140625 299.48956Q29.140625 298.7708 29.359375 298.22394Q29.5625 297.66144 29.921875 297.3958Q30.28125 297.1302 30.875 297.03644L31.015625 298.0677Q30.546875 298.1302 30.28125 298.47394Q30.0 298.80206 30.0 299.42706Q30.0 300.1458 30.25 300.4583Q30.484375 300.7708 30.8125 300.7708Q31.015625 300.7708 31.171875 300.6458Q31.34375 300.5052 31.453125 300.23956Q31.515625 300.0833 31.71875 299.30206Q32.03125 298.17706 32.21875 297.73956Q32.40625 297.30206 32.765625 297.05206Q33.125 296.80206 33.671875 296.80206Q34.203125 296.80206 34.671875 297.11456Q35.125 297.41144 35.390625 297.98956Q35.640625 298.5677 35.640625 299.30206Q35.640625 300.5208 35.140625 301.16144Q34.625 301.78644 33.640625 301.9583ZM33.21875 287.47394L33.359375 286.4427Q34.421875 286.61456 35.03125 287.3177Q35.640625 288.0208 35.640625 289.03644Q35.640625 290.3177 34.8125 291.09894Q33.96875 291.86456 32.40625 291.86456Q31.40625 291.86456 30.65625 291.53644Q29.890625 291.1927 29.515625 290.5208Q29.140625 289.8333 29.140625 289.0208Q29.140625 288.0208 29.65625 287.3802Q30.15625 286.72394 31.109375 286.53644L31.265625 287.5677Q30.640625 287.7083 30.328125 288.0833Q30.0 288.4583 30.0 288.98956Q30.0 289.78644 30.578125 290.28644Q31.140625 290.78644 32.375 290.78644Q33.640625 290.78644 34.203125 290.30206Q34.765625 289.8177 34.765625 289.05206Q34.765625 288.42706 34.390625 288.0208Q34.015625 287.59894 33.21875 287.47394ZM35.5 285.53644L26.90625 285.53644L26.90625 284.48956L29.984375 284.48956Q29.140625 283.7552 29.140625 282.6302Q29.140625 281.92706 29.421875 281.42706Q29.6875 280.91144 30.171875 280.6927Q30.640625 280.47394 31.5625 280.47394L35.5 280.47394L35.5 281.5208L31.5625 281.5208Q30.765625 281.5208 30.40625 281.86456Q30.046875 282.2083 30.046875 282.8333Q30.046875 283.30206 30.296875 283.72394Q30.53125 284.1302 30.953125 284.3177Q31.359375 284.48956 32.09375 284.48956L35.5 284.48956L35.5 285.53644ZM34.734375 274.47394Q35.234375 275.0677 35.4375 275.61456Q35.640625 276.1458 35.640625 276.7708Q35.640625 277.80206 35.140625 278.34894Q34.640625 278.8958 33.859375 278.8958Q33.40625 278.8958 33.03125 278.6927Q32.640625 278.48956 32.421875 278.1458Q32.1875 277.80206 32.078125 277.3802Q31.984375 277.0833 31.90625 276.4427Q31.765625 275.17706 31.546875 274.5677Q31.328125 274.5677 31.28125 274.5677Q30.625 274.5677 30.359375 274.86456Q30.015625 275.2708 30.015625 276.0677Q30.015625 276.80206 30.28125 277.16144Q30.53125 277.5208 31.1875 277.6927L31.046875 278.72394Q30.390625 278.5833 29.984375 278.2552Q29.578125 277.92706 29.359375 277.3177Q29.140625 276.7083 29.140625 275.91144Q29.140625 275.11456 29.328125 274.61456Q29.515625 274.11456 29.796875 273.8802Q30.078125 273.6458 30.515625 273.55206Q30.78125 273.5052 31.484375 273.5052L32.890625 273.5052Q34.359375 273.5052 34.75 273.4427Q35.140625 273.36456 35.5 273.16144L35.5 274.2708Q35.171875 274.42706 34.734375 274.47394ZM32.375 274.5677Q32.609375 275.1458 32.78125 276.28644Q32.875 276.9427 33.0 277.2083Q33.109375 277.47394 33.328125 277.6302Q33.546875 277.7708 33.828125 277.7708Q34.25 277.7708 34.53125 277.4583Q34.8125 277.1302 34.8125 276.5208Q34.8125 275.91144 34.546875 275.4427Q34.28125 274.9583 33.8125 274.73956Q33.453125 274.5677 32.765625 274.5677L32.375 274.5677ZM35.5 271.53644L29.28125 271.53644L29.28125 270.59894L30.15625 270.59894Q29.140625 269.91144 29.140625 268.61456Q29.140625 268.05206 29.34375 267.5833Q29.546875 267.09894 29.875 266.86456Q30.203125 266.6302 30.640625 266.53644Q30.9375 266.48956 31.671875 266.48956L35.5 266.48956L35.5 267.53644L31.71875 267.53644Q31.0625 267.53644 30.75 267.66144Q30.4375 267.78644 30.25 268.09894Q30.046875 268.41144 30.046875 268.8333Q30.046875 269.5052 30.484375 270.0052Q30.90625 270.48956 32.09375 270.48956L35.5 270.48956L35.5 271.53644ZM36.015625 264.73956L36.171875 263.7083Q36.640625 263.6458 36.859375 263.34894Q37.15625 262.9583 37.15625 262.28644Q37.15625 261.55206 36.859375 261.16144Q36.5625 260.7552 36.046875 260.61456Q35.71875 260.5208 34.6875 260.53644Q35.5 261.22394 35.5 262.2552Q35.5 263.53644 34.578125 264.23956Q33.640625 264.9427 32.359375 264.9427Q31.46875 264.9427 30.71875 264.6302Q29.953125 264.30206 29.546875 263.6927Q29.140625 263.0833 29.140625 262.2552Q29.140625 261.1458 30.03125 260.42706L29.28125 260.42706L29.28125 259.4583L34.65625 259.4583Q36.109375 259.4583 36.71875 259.7552Q37.328125 260.05206 37.671875 260.6927Q38.03125 261.3333 38.03125 262.2708Q38.03125 263.3802 37.53125 264.0677Q37.03125 264.7552 36.015625 264.73956ZM32.28125 263.86456Q33.5 263.86456 34.0625 263.3802Q34.625 262.8958 34.625 262.16144Q34.625 261.42706 34.0625 260.9427Q33.5 260.4427 32.3125 260.4427Q31.171875 260.4427 30.59375 260.9583Q30.015625 261.4583 30.015625 262.17706Q30.015625 262.8802 30.59375 263.3802Q31.15625 263.86456 32.28125 263.86456ZM33.5 253.28645L33.625 252.1927Q34.578125 252.4427 35.109375 253.14583Q35.640625 253.84895 35.640625 254.92708Q35.640625 256.28644 34.796875 257.09894Q33.953125 257.8958 32.4375 257.8958Q30.875 257.8958 30.015625 257.0833Q29.140625 256.2708 29.140625 254.98958Q29.140625 253.73958 29.984375 252.95833Q30.828125 252.16145 32.375 252.16145Q32.46875 252.16145 32.65625 252.16145L32.65625 256.80206Q33.6875 256.73956 34.234375 256.22394Q34.765625 255.70833 34.765625 254.92708Q34.765625 254.34895 34.46875 253.9427Q34.15625 253.52083 33.5 253.28645ZM31.796875 256.73956L31.796875 253.27083Q31.0 253.33333 30.609375 253.66145Q30.0 254.17708 30.0 254.97395Q30.0 255.70833 30.484375 256.2083Q30.96875 256.6927 31.796875 256.73956ZM38.03125 245.52083Q36.921875 246.39583 35.453125 247.0052Q33.96875 247.59895 32.390625 247.59895Q31.0 247.59895 29.71875 247.16145Q28.234375 246.6302 26.765625 245.52083L26.765625 244.77083Q27.984375 245.47395 28.5 245.70833Q29.3125 246.0677 30.1875 246.27083Q31.28125 246.52083 32.390625 246.52083Q35.21875 246.52083 38.03125 244.77083L38.03125 245.52083ZM36.015625 243.73958L36.171875 242.70833Q36.640625 242.64583 36.859375 242.34895Q37.15625 241.95833 37.15625 241.28645Q37.15625 240.55208 36.859375 240.16145Q36.5625 239.7552 36.046875 239.61458Q35.71875 239.52083 34.6875 239.53645Q35.5 240.22395 35.5 241.2552Q35.5 242.53645 34.578125 243.23958Q33.640625 243.9427 32.359375 243.9427Q31.46875 243.9427 30.71875 243.6302Q29.953125 243.30208 29.546875 242.6927Q29.140625 242.08333 29.140625 241.2552Q29.140625 240.14583 30.03125 239.42708L29.28125 239.42708L29.28125 238.45833L34.65625 238.45833Q36.109375 238.45833 36.71875 238.7552Q37.328125 239.05208 37.671875 239.6927Q38.03125 240.33333 38.03125 241.27083Q38.03125 242.3802 37.53125 243.0677Q37.03125 243.7552 36.015625 243.73958ZM32.28125 242.86458Q33.5 242.86458 34.0625 242.3802Q34.625 241.89583 34.625 241.16145Q34.625 240.42708 34.0625 239.9427Q33.5 239.4427 32.3125 239.4427Q31.171875 239.4427 30.59375 239.95833Q30.015625 240.45833 30.015625 241.17708Q30.015625 241.8802 30.59375 242.3802Q31.15625 242.86458 32.28125 242.86458ZM38.03125 235.84895L38.03125 236.59895Q35.21875 234.84895 32.390625 234.84895Q31.296875 234.84895 30.203125 235.09895Q29.328125 235.30208 28.515625 235.66145Q28.0 235.89583 26.765625 236.59895L26.765625 235.84895Q28.234375 234.7552 29.71875 234.22395Q31.0 233.77081 32.390625 233.77081Q33.96875 233.77081 35.453125 234.3802Q36.921875 234.98958 38.03125 235.84895Z" fill-rule="nonzero"/><path fill="#000000" d="M71.0 445.26562Q71.0 443.73438 71.3125 442.8125Q71.625 441.875 72.234375 441.375Q72.859375 440.875 73.796875 440.875Q74.484375 440.875 75.0 441.15625Q75.53125 441.4375 75.875 441.96875Q76.21875 442.48438 76.40625 443.23438Q76.59375 443.98438 76.59375 445.26562Q76.59375 446.78125 76.28125 447.70312Q75.984375 448.625 75.359375 449.14062Q74.75 449.64062 73.796875 449.64062Q72.5625 449.64062 71.84375 448.75Q71.0 447.6875 71.0 445.26562ZM72.078125 445.26562Q72.078125 447.375 72.578125 448.07812Q73.078125 448.78125 73.796875 448.78125Q74.53125 448.78125 75.015625 448.07812Q75.515625 447.375 75.515625 445.26562Q75.515625 443.14062 75.015625 442.45312Q74.53125 441.75 73.78125 441.75Q73.0625 441.75 72.625 442.35938Q72.078125 443.14062 72.078125 445.26562Z" fill-rule="nonzero"/><path fill="#000000" d="M74.96875 363.66666L73.921875 363.66666L73.921875 356.9479Q73.53125 357.30728 72.90625 357.68228Q72.296875 358.04166 71.8125 358.21353L71.8125 357.1979Q72.6875 356.77603 73.34375 356.1979Q74.015625 355.60416 74.296875 355.04166L74.96875 355.04166L74.96875 363.66666Z" fill-rule="nonzero"/><path fill="#000000" d="M76.546875 276.81772L76.546875 277.83334L70.859375 277.83334Q70.859375 277.45834 70.984375 277.09897Q71.203125 276.52084 71.671875 275.95834Q72.15625 275.39584 73.0625 274.66147Q74.46875 273.50522 74.953125 272.83334Q75.453125 272.16147 75.453125 271.56772Q75.453125 270.94272 75.0 270.52084Q74.546875 270.08334 73.828125 270.08334Q73.0625 270.08334 72.609375 270.53647Q72.15625 270.9896 72.140625 271.8021L71.0625 271.69272Q71.171875 270.47397 71.890625 269.84897Q72.625 269.20834 73.859375 269.20834Q75.09375 269.20834 75.8125 269.89584Q76.53125 270.58334 76.53125 271.59897Q76.53125 272.1146 76.3125 272.6146Q76.109375 273.09897 75.609375 273.66147Q75.125 274.20834 74.0 275.16147Q73.046875 275.95834 72.765625 276.25522Q72.5 276.53647 72.328125 276.81772L76.546875 276.81772Z" fill-rule="nonzero"/><path fill="#000000" d="M71.0 189.73438L72.0625 189.59375Q72.234375 190.48438 72.671875 190.89062Q73.109375 191.28125 73.734375 191.28125Q74.484375 191.28125 75.0 190.76562Q75.515625 190.25 75.515625 189.48438Q75.515625 188.76562 75.03125 188.29688Q74.5625 187.8125 73.828125 187.8125Q73.53125 187.8125 73.078125 187.9375L73.203125 187.0Q73.3125 187.01562 73.375 187.01562Q74.046875 187.01562 74.578125 186.67188Q75.125 186.3125 75.125 185.57812Q75.125 185.0 74.734375 184.625Q74.34375 184.23438 73.71875 184.23438Q73.109375 184.23438 72.6875 184.625Q72.28125 185.01562 72.171875 185.78125L71.109375 185.59375Q71.296875 184.54688 71.984375 183.96875Q72.671875 183.375 73.6875 183.375Q74.390625 183.375 74.984375 183.6875Q75.578125 183.98438 75.890625 184.5Q76.203125 185.01562 76.203125 185.60938Q76.203125 186.15625 75.90625 186.625Q75.609375 187.07812 75.03125 187.34375Q75.78125 187.51562 76.203125 188.07812Q76.625 188.625 76.625 189.46875Q76.625 190.59375 75.796875 191.375Q74.984375 192.15625 73.734375 192.15625Q72.609375 192.15625 71.859375 191.48438Q71.109375 190.79688 71.0 189.73438Z" fill-rule="nonzero"/><path fill="#000000" d="M74.375 106.166664L74.375 104.104164L70.65625 104.104164L70.65625 103.135414L74.578125 97.572914L75.4375 97.572914L75.4375 103.135414L76.59375 103.135414L76.59375 104.104164L75.4375 104.104164L75.4375 106.166664L74.375 106.166664ZM74.375 103.135414L74.375 99.27604L71.6875 103.135414L74.375 103.135414Z" fill-rule="nonzero"/><path fill="#000000" d="M128.0711 462.5L127.02424 462.5L127.02424 455.78125Q126.63361 456.14062 126.00861 456.51562Q125.39924 456.875 124.91486 457.04688L124.91486 456.03125Q125.78986 455.60938 126.44611 455.03125Q127.11799 454.4375 127.39924 453.875L128.0711 453.875L128.0711 462.5ZM131.68048 457.48438L131.68048 456.28125L132.8836 456.28125L132.8836 457.48438L131.68048 457.48438ZM131.68048 462.5L131.68048 461.29688L132.8836 461.29688L132.8836 462.5L131.68048 462.5ZM138.0711 462.5L137.02423 462.5L137.02423 455.78125Q136.6336 456.14062 136.0086 456.51562Q135.39923 456.875 134.91486 457.04688L134.91486 456.03125Q135.78986 455.60938 136.4461 455.03125Q137.11798 454.4375 137.39923 453.875L138.0711 453.875L138.0711 462.5ZM144.39923 464.89062L144.39923 456.28125L145.35236 456.28125L145.35236 457.07812Q145.6961 456.60938 146.11798 456.375Q146.55548 456.14062 147.16486 456.14062Q147.96173 456.14062 148.5711 456.54688Q149.18048 456.95312 149.47736 457.70312Q149.78986 458.45312 149.78986 459.34375Q149.78986 460.29688 149.4461 461.0625Q149.11798 461.82812 148.46173 462.23438Q147.80548 462.64062 147.08673 462.64062Q146.55548 462.64062 146.1336 462.42188Q145.71173 462.1875 145.4461 461.85938L145.4461 464.89062L144.39923 464.89062ZM145.35236 459.42188Q145.35236 460.625 145.83673 461.20312Q146.3211 461.76562 147.0086 461.76562Q147.71173 461.76562 148.21173 461.17188Q148.71173 460.57812 148.71173 459.32812Q148.71173 458.14062 148.22736 457.5625Q147.74298 456.96875 147.05548 456.96875Q146.3836 456.96875 145.86798 457.59375Q145.35236 458.21875 145.35236 459.42188ZM158.0711 462.5L157.02423 462.5L157.02423 455.78125Q156.6336 456.14062 156.0086 456.51562Q155.39923 456.875 154.91486 457.04688L154.91486 456.03125Q155.78986 455.60938 156.4461 455.03125Q157.11798 454.4375 157.39923 453.875L158.0711 453.875L158.0711 462.5ZM161.6961 462.5L161.6961 461.29688L162.89923 461.29688L162.89923 462.5L161.6961 462.5ZM169.64923 461.48438L169.64923 462.5L163.96173 462.5Q163.96173 462.125 164.08673 461.76562Q164.30548 461.1875 164.77423 460.625Q165.2586 460.0625 166.16486 459.32812Q167.5711 458.17188 168.05548 457.5Q168.55548 456.82812 168.55548 456.23438Q168.55548 455.60938 168.10236 455.1875Q167.64923 454.75 166.93048 454.75Q166.16486 454.75 165.71173 455.20312Q165.2586 455.65625 165.24298 456.46875L164.16486 456.35938Q164.27423 455.14062 164.99298 454.51562Q165.72736 453.875 166.96173 453.875Q168.1961 453.875 168.91486 454.5625Q169.6336 455.25 169.6336 456.26562Q169.6336 456.78125 169.41486 457.28125Q169.21173 457.76562 168.71173 458.32812Q168.22736 458.875 167.10236 459.82812Q166.14923 460.625 165.86798 460.92188Q165.60236 461.20312 165.43048 461.48438L169.64923 461.48438ZM171.10236 460.25L172.21173 460.15625Q172.33673 460.96875 172.77423 461.375Q173.22736 461.78125 173.86798 461.78125Q174.61798 461.78125 175.14923 461.20312Q175.68048 460.625 175.68048 459.6875Q175.68048 458.78125 175.16486 458.26562Q174.66486 457.73438 173.83673 457.73438Q173.33673 457.73438 172.91486 457.96875Q172.5086 458.20312 172.27423 458.5625L171.28986 458.4375L172.11798 454.03125L176.39923 454.03125L176.39923 455.03125L172.96173 455.03125L172.5086 457.34375Q173.27423 456.79688 174.11798 456.79688Q175.24298 456.79688 176.0086 457.57812Q176.78986 458.35938 176.78986 459.59375Q176.78986 460.75 176.11798 461.60938Q175.28986 462.64062 173.86798 462.64062Q172.6961 462.64062 171.9461 461.98438Q171.21173 461.32812 171.10236 460.25ZM178.30548 455.96875Q178.30548 455.04688 178.7586 454.40625Q179.22736 453.76562 180.10236 453.76562Q180.91486 453.76562 181.4461 454.34375Q181.97736 454.92188 181.97736 456.03125Q181.97736 457.125 181.43048 457.71875Q180.89923 458.29688 180.11798 458.29688Q179.33673 458.29688 178.8211 457.71875Q178.30548 457.14062 178.30548 455.96875ZM180.1336 454.48438Q179.74298 454.48438 179.47736 454.82812Q179.22736 455.17188 179.22736 456.07812Q179.22736 456.90625 179.47736 457.25Q179.74298 457.57812 180.1336 457.57812Q180.53986 457.57812 180.78986 457.23438Q181.05548 456.89062 181.05548 456.0Q181.05548 455.15625 180.78986 454.82812Q180.52423 454.48438 180.1336 454.48438ZM180.1336 462.8125L184.83673 453.76562L185.6961 453.76562L181.0086 462.8125L180.1336 462.8125ZM183.85236 460.48438Q183.85236 459.5625 184.30548 458.92188Q184.77423 458.28125 185.66486 458.28125Q186.47736 458.28125 187.0086 458.85938Q187.53986 459.42188 187.53986 460.54688Q187.53986 461.64062 186.99298 462.23438Q186.46173 462.8125 185.66486 462.8125Q184.89923 462.8125 184.36798 462.23438Q183.85236 461.65625 183.85236 460.48438ZM185.6961 459.0Q185.28986 459.0 185.02423 459.34375Q184.77423 459.6875 184.77423 460.59375Q184.77423 461.40625 185.03986 461.75Q185.30548 462.09375 185.6961 462.09375Q186.08673 462.09375 186.35236 461.75Q186.61798 461.40625 186.61798 460.5Q186.61798 459.67188 186.35236 459.34375Q186.08673 459.0 185.6961 459.0Z" fill-rule="nonzero"/><path fill="#000000" d="M239.13017 462.5L238.0833 462.5L238.0833 455.78125Q237.69267 456.14062 237.06767 456.51562Q236.4583 456.875 235.97392 457.04688L235.97392 456.03125Q236.84892 455.60938 237.50517 455.03125Q238.17705 454.4375 238.4583 453.875L239.13017 453.875L239.13017 462.5ZM242.73955 457.48438L242.73955 456.28125L243.94267 456.28125L243.94267 457.48438L242.73955 457.48438ZM242.73955 462.5L242.73955 461.29688L243.94267 461.29688L243.94267 462.5L242.73955 462.5ZM249.13017 462.5L248.0833 462.5L248.0833 455.78125Q247.69267 456.14062 247.06767 456.51562Q246.4583 456.875 245.97392 457.04688L245.97392 456.03125Q246.84892 455.60938 247.50517 455.03125Q248.17705 454.4375 248.4583 453.875L249.13017 453.875L249.13017 462.5ZM255.4583 464.89062L255.4583 456.28125L256.41144 456.28125L256.41144 457.07812Q256.7552 456.60938 257.17706 456.375Q257.61456 456.14062 258.22394 456.14062Q259.0208 456.14062 259.6302 456.54688Q260.23956 456.95312 260.53644 457.70312Q260.84894 458.45312 260.84894 459.34375Q260.84894 460.29688 260.5052 461.0625Q260.17706 461.82812 259.5208 462.23438Q258.86456 462.64062 258.1458 462.64062Q257.61456 462.64062 257.1927 462.42188Q256.7708 462.1875 256.5052 461.85938L256.5052 464.89062L255.4583 464.89062ZM256.41144 459.42188Q256.41144 460.625 256.8958 461.20312Q257.3802 461.76562 258.0677 461.76562Q258.7708 461.76562 259.2708 461.17188Q259.7708 460.57812 259.7708 459.32812Q259.7708 458.14062 259.28644 457.5625Q258.80206 456.96875 258.11456 456.96875Q257.4427 456.96875 256.92706 457.59375Q256.41144 458.21875 256.41144 459.42188ZM270.7083 461.48438L270.7083 462.5L265.0208 462.5Q265.0208 462.125 265.1458 461.76562Q265.36456 461.1875 265.8333 460.625Q266.3177 460.0625 267.22394 459.32812Q268.6302 458.17188 269.11456 457.5Q269.61456 456.82812 269.61456 456.23438Q269.61456 455.60938 269.16144 455.1875Q268.7083 454.75 267.98956 454.75Q267.22394 454.75 266.7708 455.20312Q266.3177 455.65625 266.30206 456.46875L265.22394 456.35938Q265.3333 455.14062 266.05206 454.51562Q266.78644 453.875 268.0208 453.875Q269.2552 453.875 269.97394 454.5625Q270.6927 455.25 270.6927 456.26562Q270.6927 456.78125 270.47394 457.28125Q270.2708 457.76562 269.7708 458.32812Q269.28644 458.875 268.16144 459.82812Q267.2083 460.625 266.92706 460.92188Q266.66144 461.20312 266.48956 461.48438L270.7083 461.48438ZM272.7552 462.5L272.7552 461.29688L273.9583 461.29688L273.9583 462.5L272.7552 462.5ZM275.16144 460.25L276.2708 460.15625Q276.3958 460.96875 276.8333 461.375Q277.28644 461.78125 277.92706 461.78125Q278.67706 461.78125 279.2083 461.20312Q279.73956 460.625 279.73956 459.6875Q279.73956 458.78125 279.22394 458.26562Q278.72394 457.73438 277.8958 457.73438Q277.3958 457.73438 276.97394 457.96875Q276.5677 458.20312 276.3333 458.5625L275.34894 458.4375L276.17706 454.03125L280.4583 454.03125L280.4583 455.03125L277.0208 455.03125L276.5677 457.34375Q277.3333 456.79688 278.17706 456.79688Q279.30206 456.79688 280.0677 457.57812Q280.84894 458.35938 280.84894 459.59375Q280.84894 460.75 280.17706 461.60938Q279.34894 462.64062 277.92706 462.64062Q276.7552 462.64062 276.0052 461.98438Q275.2708 461.32812 275.16144 460.25ZM282.36456 455.96875Q282.36456 455.04688 282.8177 454.40625Q283.28644 453.76562 284.16144 453.76562Q284.97394 453.76562 285.5052 454.34375Q286.03644 454.92188 286.03644 456.03125Q286.03644 457.125 285.48956 457.71875Q284.9583 458.29688 284.17706 458.29688Q283.3958 458.29688 282.8802 457.71875Q282.36456 457.14062 282.36456 455.96875ZM284.1927 454.48438Q283.80206 454.48438 283.53644 454.82812Q283.28644 455.17188 283.28644 456.07812Q283.28644 456.90625 283.53644 457.25Q283.80206 457.57812 284.1927 457.57812Q284.59894 457.57812 284.84894 457.23438Q285.11456 456.89062 285.11456 456.0Q285.11456 455.15625 284.84894 454.82812Q284.5833 454.48438 284.1927 454.48438ZM284.1927 462.8125L288.8958 453.76562L289.7552 453.76562L285.0677 462.8125L284.1927 462.8125ZM287.91144 460.48438Q287.91144 459.5625 288.36456 458.92188Q288.8333 458.28125 289.72394 458.28125Q290.53644 458.28125 291.0677 458.85938Q291.59894 459.42188 291.59894 460.54688Q291.59894 461.64062 291.05206 462.23438Q290.5208 462.8125 289.72394 462.8125Q288.9583 462.8125 288.42706 462.23438Q287.91144 461.65625 287.91144 460.48438ZM289.7552 459.0Q289.34894 459.0 289.0833 459.34375Q288.8333 459.6875 288.8333 460.59375Q288.8333 461.40625 289.09894 461.75Q289.36456 462.09375 289.7552 462.09375Q290.1458 462.09375 290.41144 461.75Q290.67706 461.40625 290.67706 460.5Q290.67706 459.67188 290.41144 459.34375Q290.1458 459.0 289.7552 459.0Z" fill-rule="nonzero"/><path fill="#000000" d="M346.6892 462.5L345.64233 462.5L345.64233 455.78125Q345.2517 456.14062 344.6267 456.51562Q344.01733 456.875 343.53296 457.04688L343.53296 456.03125Q344.40796 455.60938 345.0642 455.03125Q345.73608 454.4375 346.01733 453.875L346.6892 453.875L346.6892 462.5ZM350.29858 457.48438L350.29858 456.28125L351.5017 456.28125L351.5017 457.48438L350.29858 457.48438ZM350.29858 462.5L350.29858 461.29688L351.5017 461.29688L351.5017 462.5L350.29858 462.5ZM356.6892 462.5L355.64233 462.5L355.64233 455.78125Q355.2517 456.14062 354.6267 456.51562Q354.01733 456.875 353.53296 457.04688L353.53296 456.03125Q354.40796 455.60938 355.0642 455.03125Q355.73608 454.4375 356.01733 453.875L356.6892 453.875L356.6892 462.5ZM363.01733 464.89062L363.01733 456.28125L363.97046 456.28125L363.97046 457.07812Q364.3142 456.60938 364.73608 456.375Q365.17358 456.14062 365.78296 456.14062Q366.57983 456.14062 367.1892 456.54688Q367.79858 456.95312 368.09546 457.70312Q368.40796 458.45312 368.40796 459.34375Q368.40796 460.29688 368.0642 461.0625Q367.73608 461.82812 367.07983 462.23438Q366.42358 462.64062 365.70483 462.64062Q365.17358 462.64062 364.7517 462.42188Q364.32983 462.1875 364.0642 461.85938L364.0642 464.89062L363.01733 464.89062ZM363.97046 459.42188Q363.97046 460.625 364.45483 461.20312Q364.9392 461.76562 365.6267 461.76562Q366.32983 461.76562 366.82983 461.17188Q367.32983 460.57812 367.32983 459.32812Q367.32983 458.14062 366.84546 457.5625Q366.36108 456.96875 365.67358 456.96875Q365.0017 456.96875 364.48608 457.59375Q363.97046 458.21875 363.97046 459.42188ZM378.26733 461.48438L378.26733 462.5L372.57983 462.5Q372.57983 462.125 372.70483 461.76562Q372.92358 461.1875 373.39233 460.625Q373.8767 460.0625 374.78296 459.32812Q376.1892 458.17188 376.67358 457.5Q377.17358 456.82812 377.17358 456.23438Q377.17358 455.60938 376.72046 455.1875Q376.26733 454.75 375.54858 454.75Q374.78296 454.75 374.32983 455.20312Q373.8767 455.65625 373.86108 456.46875L372.78296 456.35938Q372.89233 455.14062 373.61108 454.51562Q374.34546 453.875 375.57983 453.875Q376.8142 453.875 377.53296 454.5625Q378.2517 455.25 378.2517 456.26562Q378.2517 456.78125 378.03296 457.28125Q377.82983 457.76562 377.32983 458.32812Q376.84546 458.875 375.72046 459.82812Q374.76733 460.625 374.48608 460.92188Q374.22046 461.20312 374.04858 461.48438L378.26733 461.48438ZM380.3142 462.5L380.3142 461.29688L381.51733 461.29688L381.51733 462.5L380.3142 462.5ZM382.72046 460.25L383.82983 460.15625Q383.95483 460.96875 384.39233 461.375Q384.84546 461.78125 385.48608 461.78125Q386.23608 461.78125 386.76733 461.20312Q387.29858 460.625 387.29858 459.6875Q387.29858 458.78125 386.78296 458.26562Q386.28296 457.73438 385.45483 457.73438Q384.95483 457.73438 384.53296 457.96875Q384.1267 458.20312 383.89233 458.5625L382.90796 458.4375L383.73608 454.03125L388.01733 454.03125L388.01733 455.03125L384.57983 455.03125L384.1267 457.34375Q384.89233 456.79688 385.73608 456.79688Q386.86108 456.79688 387.6267 457.57812Q388.40796 458.35938 388.40796 459.59375Q388.40796 460.75 387.73608 461.60938Q386.90796 462.64062 385.48608 462.64062Q384.3142 462.64062 383.5642 461.98438Q382.82983 461.32812 382.72046 460.25ZM389.92358 455.96875Q389.92358 455.04688 390.3767 454.40625Q390.84546 453.76562 391.72046 453.76562Q392.53296 453.76562 393.0642 454.34375Q393.59546 454.92188 393.59546 456.03125Q393.59546 457.125 393.04858 457.71875Q392.51733 458.29688 391.73608 458.29688Q390.95483 458.29688 390.4392 457.71875Q389.92358 457.14062 389.92358 455.96875ZM391.7517 454.48438Q391.36108 454.48438 391.09546 454.82812Q390.84546 455.17188 390.84546 456.07812Q390.84546 456.90625 391.09546 457.25Q391.36108 457.57812 391.7517 457.57812Q392.15796 457.57812 392.40796 457.23438Q392.67358 456.89062 392.67358 456.0Q392.67358 455.15625 392.40796 454.82812Q392.14233 454.48438 391.7517 454.48438ZM391.7517 462.8125L396.45483 453.76562L397.3142 453.76562L392.6267 462.8125L391.7517 462.8125ZM395.47046 460.48438Q395.47046 459.5625 395.92358 458.92188Q396.39233 458.28125 397.28296 458.28125Q398.09546 458.28125 398.6267 458.85938Q399.15796 459.42188 399.15796 460.54688Q399.15796 461.64062 398.61108 462.23438Q398.07983 462.8125 397.28296 462.8125Q396.51733 462.8125 395.98608 462.23438Q395.47046 461.65625 395.47046 460.48438ZM397.3142 459.0Q396.90796 459.0 396.64233 459.34375Q396.39233 459.6875 396.39233 460.59375Q396.39233 461.40625 396.65796 461.75Q396.92358 462.09375 397.3142 462.09375Q397.70483 462.09375 397.97046 461.75Q398.23608 461.40625 398.23608 460.5Q398.23608 459.67188 397.97046 459.34375Q397.70483 459.0 397.3142 459.0Z" fill-rule="nonzero"/><path fill="#000000" d="M459.2483 462.5L458.20142 462.5L458.20142 455.78125Q457.8108 456.14062 457.1858 456.51562Q456.57642 456.875 456.09204 457.04688L456.09204 456.03125Q456.96704 455.60938 457.6233 455.03125Q458.29517 454.4375 458.57642 453.875L459.2483 453.875L459.2483 462.5ZM462.85767 457.48438L462.85767 456.28125L464.0608 456.28125L464.0608 457.48438L462.85767 457.48438ZM462.85767 462.5L462.85767 461.29688L464.0608 461.29688L464.0608 462.5L462.85767 462.5ZM469.2483 462.5L468.20142 462.5L468.20142 455.78125Q467.8108 456.14062 467.1858 456.51562Q466.57642 456.875 466.09204 457.04688L466.09204 456.03125Q466.96704 455.60938 467.6233 455.03125Q468.29517 454.4375 468.57642 453.875L469.2483 453.875L469.2483 462.5ZM475.57642 464.89062L475.57642 456.28125L476.52954 456.28125L476.52954 457.07812Q476.8733 456.60938 477.29517 456.375Q477.73267 456.14062 478.34204 456.14062Q479.13892 456.14062 479.7483 456.54688Q480.35767 456.95312 480.65454 457.70312Q480.96704 458.45312 480.96704 459.34375Q480.96704 460.29688 480.6233 461.0625Q480.29517 461.82812 479.63892 462.23438Q478.98267 462.64062 478.26392 462.64062Q477.73267 462.64062 477.3108 462.42188Q476.88892 462.1875 476.6233 461.85938L476.6233 464.89062L475.57642 464.89062ZM476.52954 459.42188Q476.52954 460.625 477.01392 461.20312Q477.4983 461.76562 478.1858 461.76562Q478.88892 461.76562 479.38892 461.17188Q479.88892 460.57812 479.88892 459.32812Q479.88892 458.14062 479.40454 457.5625Q478.92017 456.96875 478.23267 456.96875Q477.5608 456.96875 477.04517 457.59375Q476.52954 458.21875 476.52954 459.42188ZM485.27954 460.25L486.38892 460.15625Q486.51392 460.96875 486.95142 461.375Q487.40454 461.78125 488.04517 461.78125Q488.79517 461.78125 489.32642 461.20312Q489.85767 460.625 489.85767 459.6875Q489.85767 458.78125 489.34204 458.26562Q488.84204 457.73438 488.01392 457.73438Q487.51392 457.73438 487.09204 457.96875Q486.6858 458.20312 486.45142 458.5625L485.46704 458.4375L486.29517 454.03125L490.57642 454.03125L490.57642 455.03125L487.13892 455.03125L486.6858 457.34375Q487.45142 456.79688 488.29517 456.79688Q489.42017 456.79688 490.1858 457.57812Q490.96704 458.35938 490.96704 459.59375Q490.96704 460.75 490.29517 461.60938Q489.46704 462.64062 488.04517 462.64062Q486.8733 462.64062 486.1233 461.98438Q485.38892 461.32812 485.27954 460.25ZM492.48267 455.96875Q492.48267 455.04688 492.9358 454.40625Q493.40454 453.76562 494.27954 453.76562Q495.09204 453.76562 495.6233 454.34375Q496.15454 454.92188 496.15454 456.03125Q496.15454 457.125 495.60767 457.71875Q495.07642 458.29688 494.29517 458.29688Q493.51392 458.29688 492.9983 457.71875Q492.48267 457.14062 492.48267 455.96875ZM494.3108 454.48438Q493.92017 454.48438 493.65454 454.82812Q493.40454 455.17188 493.40454 456.07812Q493.40454 456.90625 493.65454 457.25Q493.92017 457.57812 494.3108 457.57812Q494.71704 457.57812 494.96704 457.23438Q495.23267 456.89062 495.23267 456.0Q495.23267 455.15625 494.96704 454.82812Q494.70142 454.48438 494.3108 454.48438ZM494.3108 462.8125L499.01392 453.76562L499.8733 453.76562L495.1858 462.8125L494.3108 462.8125ZM498.02954 460.48438Q498.02954 459.5625 498.48267 458.92188Q498.95142 458.28125 499.84204 458.28125Q500.65454 458.28125 501.1858 458.85938Q501.71704 459.42188 501.71704 460.54688Q501.71704 461.64062 501.17017 462.23438Q500.63892 462.8125 499.84204 462.8125Q499.07642 462.8125 498.54517 462.23438Q498.02954 461.65625 498.02954 460.48438ZM499.8733 459.0Q499.46704 459.0 499.20142 459.34375Q498.95142 459.6875 498.95142 460.59375Q498.95142 461.40625 499.21704 461.75Q499.48267 462.09375 499.8733 462.09375Q500.26392 462.09375 500.52954 461.75Q500.79517 461.40625 500.79517 460.5Q500.79517 459.67188 500.52954 459.34375Q500.26392 459.0 499.8733 459.0Z" fill-rule="nonzero"/><path fill="#000000" d="M575.1667 462.5L575.1667 461.71875Q574.57294 462.64062 573.4323 462.64062Q572.6823 462.64062 572.0573 462.23438Q571.4323 461.8125 571.08856 461.07812Q570.7448 460.34375 570.7448 459.39062Q570.7448 458.46875 571.0573 457.70312Q571.3698 456.9375 571.9948 456.54688Q572.6198 456.14062 573.38544 456.14062Q573.94794 456.14062 574.38544 456.375Q574.82294 456.60938 575.1042 456.98438L575.1042 453.90625L576.15106 453.90625L576.15106 462.5L575.1667 462.5ZM571.83856 459.39062Q571.83856 460.59375 572.33856 461.1875Q572.83856 461.76562 573.52606 461.76562Q574.21356 461.76562 574.69794 461.20312Q575.1823 460.64062 575.1823 459.48438Q575.1823 458.20312 574.6823 457.60938Q574.19794 457.01562 573.4792 457.01562Q572.77606 457.01562 572.3073 457.59375Q571.83856 458.15625 571.83856 459.39062ZM578.13544 462.5L578.13544 456.28125L579.07294 456.28125L579.07294 457.15625Q579.3698 456.6875 579.8542 456.42188Q580.33856 456.14062 580.96356 456.14062Q581.65106 456.14062 582.08856 456.42188Q582.5417 456.70312 582.71356 457.21875Q583.46356 456.14062 584.63544 456.14062Q585.57294 456.14062 586.0573 456.65625Q586.5573 457.15625 586.5573 458.23438L586.5573 462.5L585.51044 462.5L585.51044 458.57812Q585.51044 457.95312 585.40106 457.67188Q585.3073 457.39062 585.0417 457.21875Q584.77606 457.04688 584.40106 457.04688Q583.7448 457.04688 583.3073 457.48438Q582.88544 457.92188 582.88544 458.89062L582.88544 462.5L581.82294 462.5L581.82294 458.45312Q581.82294 457.75 581.5573 457.40625Q581.3073 457.04688 580.7292 457.04688Q580.27606 457.04688 579.90106 457.28125Q579.52606 457.51562 579.3542 457.96875Q579.1823 458.42188 579.1823 459.26562L579.1823 462.5L578.13544 462.5ZM588.71356 460.64062L589.7448 460.48438Q589.83856 461.10938 590.2292 461.4375Q590.63544 461.76562 591.3698 461.76562Q592.08856 461.76562 592.4323 461.48438Q592.7917 461.1875 592.7917 460.78125Q592.7917 460.42188 592.4792 460.21875Q592.26044 460.07812 591.40106 459.85938Q590.2448 459.5625 589.7917 459.35938Q589.3542 459.14062 589.1198 458.76562Q588.88544 458.39062 588.88544 457.92188Q588.88544 457.51562 589.07294 457.15625Q589.26044 456.79688 589.58856 456.5625Q589.83856 456.39062 590.26044 456.26562Q590.6823 456.14062 591.1823 456.14062Q591.90106 456.14062 592.44794 456.35938Q593.01044 456.5625 593.27606 456.92188Q593.5417 457.28125 593.63544 457.875L592.6042 458.01562Q592.5417 457.54688 592.19794 457.28125Q591.8698 457.0 591.2448 457.0Q590.52606 457.0 590.21356 457.25Q589.90106 457.48438 589.90106 457.8125Q589.90106 458.01562 590.02606 458.17188Q590.1667 458.34375 590.4323 458.45312Q590.58856 458.51562 591.3698 458.71875Q592.4948 459.03125 592.9323 459.21875Q593.3698 459.40625 593.6198 459.76562Q593.8698 460.125 593.8698 460.67188Q593.8698 461.20312 593.5573 461.67188Q593.26044 462.125 592.6823 462.39062Q592.1042 462.64062 591.3698 462.64062Q590.15106 462.64062 589.51044 462.14062Q588.88544 461.625 588.71356 460.64062ZM595.7448 459.39062Q595.7448 457.65625 596.69794 456.82812Q597.4948 456.14062 598.65106 456.14062Q599.9323 456.14062 600.7448 456.98438Q601.57294 457.8125 601.57294 459.29688Q601.57294 460.5 601.21356 461.1875Q600.8542 461.875 600.15106 462.26562Q599.46356 462.64062 598.65106 462.64062Q597.3542 462.64062 596.5417 461.8125Q595.7448 460.96875 595.7448 459.39062ZM596.82294 459.39062Q596.82294 460.57812 597.33856 461.17188Q597.8698 461.76562 598.65106 461.76562Q599.44794 461.76562 599.96356 461.17188Q600.4792 460.57812 600.4792 459.35938Q600.4792 458.20312 599.94794 457.60938Q599.4323 457.01562 598.65106 457.01562Q597.8698 457.01562 597.33856 457.60938Q596.82294 458.1875 596.82294 459.39062Z" fill-rule="nonzero"/><path fill="#000000" d="M633.6945 462.5L633.6945 456.28125L634.632 456.28125L634.632 457.15625Q634.9289 456.6875 635.41327 456.42188Q635.89764 456.14062 636.52264 456.14062Q637.21014 456.14062 637.64764 456.42188Q638.10077 456.70312 638.27264 457.21875Q639.02264 456.14062 640.1945 456.14062Q641.132 456.14062 641.6164 456.65625Q642.1164 457.15625 642.1164 458.23438L642.1164 462.5L641.0695 462.5L641.0695 458.57812Q641.0695 457.95312 640.96014 457.67188Q640.8664 457.39062 640.60077 457.21875Q640.33514 457.04688 639.96014 457.04688Q639.3039 457.04688 638.8664 457.48438Q638.4445 457.92188 638.4445 458.89062L638.4445 462.5L637.382 462.5L637.382 458.45312Q637.382 457.75 637.1164 457.40625Q636.8664 457.04688 636.28827 457.04688Q635.83514 457.04688 635.46014 457.28125Q635.08514 457.51562 634.91327 457.96875Q634.7414 458.42188 634.7414 459.26562L634.7414 462.5L633.6945 462.5ZM648.9445 460.5L650.03827 460.625Q649.78827 461.57812 649.08514 462.10938Q648.382 462.64062 647.3039 462.64062Q645.9445 462.64062 645.132 461.79688Q644.33514 460.95312 644.33514 459.4375Q644.33514 457.875 645.14764 457.01562Q645.96014 456.14062 647.2414 456.14062Q648.4914 456.14062 649.27264 456.98438Q650.0695 457.82812 650.0695 459.375Q650.0695 459.46875 650.0695 459.65625L645.4289 459.65625Q645.4914 460.6875 646.007 461.23438Q646.52264 461.76562 647.3039 461.76562Q647.882 461.76562 648.28827 461.46875Q648.71014 461.15625 648.9445 460.5ZM645.4914 458.79688L648.96014 458.79688Q648.89764 458.0 648.5695 457.60938Q648.0539 457.0 647.257 457.0Q646.52264 457.0 646.02264 457.48438Q645.53827 457.96875 645.4914 458.79688ZM655.757 461.73438Q655.16327 462.23438 654.6164 462.4375Q654.08514 462.64062 653.46014 462.64062Q652.4289 462.64062 651.882 462.14062Q651.33514 461.64062 651.33514 460.85938Q651.33514 460.40625 651.53827 460.03125Q651.7414 459.64062 652.08514 459.42188Q652.4289 459.1875 652.85077 459.07812Q653.14764 458.98438 653.78827 458.90625Q655.0539 458.76562 655.66327 458.54688Q655.66327 458.32812 655.66327 458.28125Q655.66327 457.625 655.3664 457.35938Q654.96014 457.01562 654.16327 457.01562Q653.4289 457.01562 653.0695 457.28125Q652.71014 457.53125 652.53827 458.1875L651.507 458.04688Q651.64764 457.39062 651.97577 456.98438Q652.3039 456.57812 652.91327 456.35938Q653.52264 456.14062 654.3195 456.14062Q655.1164 456.14062 655.6164 456.32812Q656.1164 456.51562 656.35077 456.79688Q656.58514 457.07812 656.6789 457.51562Q656.72577 457.78125 656.72577 458.48438L656.72577 459.89062Q656.72577 461.35938 656.78827 461.75Q656.8664 462.14062 657.0695 462.5L655.96014 462.5Q655.8039 462.17188 655.757 461.73438ZM655.66327 459.375Q655.08514 459.60938 653.9445 459.78125Q653.28827 459.875 653.02264 460.0Q652.757 460.10938 652.60077 460.32812Q652.46014 460.54688 652.46014 460.82812Q652.46014 461.25 652.77264 461.53125Q653.10077 461.8125 653.71014 461.8125Q654.3195 461.8125 654.78827 461.54688Q655.27264 461.28125 655.4914 460.8125Q655.66327 460.45312 655.66327 459.76562L655.66327 459.375ZM658.6945 462.5L658.6945 456.28125L659.632 456.28125L659.632 457.15625Q660.3195 456.14062 661.6164 456.14062Q662.1789 456.14062 662.64764 456.34375Q663.132 456.54688 663.3664 456.875Q663.60077 457.20312 663.6945 457.64062Q663.7414 457.9375 663.7414 458.67188L663.7414 462.5L662.6945 462.5L662.6945 458.71875Q662.6945 458.0625 662.5695 457.75Q662.4445 457.4375 662.132 457.25Q661.8195 457.04688 661.39764 457.04688Q660.72577 457.04688 660.22577 457.48438Q659.7414 457.90625 659.7414 459.09375L659.7414 462.5L658.6945 462.5ZM672.9445 460.5L674.03827 460.625Q673.78827 461.57812 673.08514 462.10938Q672.382 462.64062 671.3039 462.64062Q669.9445 462.64062 669.132 461.79688Q668.33514 460.95312 668.33514 459.4375Q668.33514 457.875 669.14764 457.01562Q669.96014 456.14062 671.2414 456.14062Q672.4914 456.14062 673.27264 456.98438Q674.0695 457.82812 674.0695 459.375Q674.0695 459.46875 674.0695 459.65625L669.4289 459.65625Q669.4914 460.6875 670.007 461.23438Q670.52264 461.76562 671.3039 461.76562Q671.882 461.76562 672.28827 461.46875Q672.71014 461.15625 672.9445 460.5ZM669.4914 458.79688L672.96014 458.79688Q672.89764 458.0 672.5695 457.60938Q672.0539 457.0 671.257 457.0Q670.52264 457.0 670.02264 457.48438Q669.53827 457.96875 669.4914 458.79688ZM674.9914 462.5L677.257 459.26562L675.16327 456.28125L676.47577 456.28125L677.4289 457.73438Q677.6945 458.15625 677.8664 458.4375Q678.1164 458.04688 678.33514 457.75L679.382 456.28125L680.64764 456.28125L678.4914 459.20312L680.8039 462.5L679.52264 462.5L678.2414 460.5625L677.89764 460.04688L676.257 462.5L674.9914 462.5ZM684.757 460.21875L685.78827 460.35938Q685.6164 461.42188 684.91327 462.03125Q684.21014 462.64062 683.1945 462.64062Q681.91327 462.64062 681.132 461.8125Q680.3664 460.96875 680.3664 459.40625Q680.3664 458.40625 680.6945 457.65625Q681.03827 456.89062 681.71014 456.51562Q682.39764 456.14062 683.21014 456.14062Q684.21014 456.14062 684.85077 456.65625Q685.507 457.15625 685.6945 458.10938L684.66327 458.26562Q684.52264 457.64062 684.14764 457.32812Q683.77264 457.0 683.2414 457.0Q682.4445 457.0 681.9445 457.57812Q681.4445 458.14062 681.4445 459.375Q681.4445 460.64062 681.9289 461.20312Q682.41327 461.76562 683.1789 461.76562Q683.8039 461.76562 684.21014 461.39062Q684.632 461.01562 684.757 460.21875ZM686.66327 462.5L686.66327 453.90625L687.72577 453.90625L687.72577 462.5L686.66327 462.5ZM693.77264 462.5L693.77264 461.57812Q693.03827 462.64062 691.78827 462.64062Q691.2414 462.64062 690.757 462.4375Q690.28827 462.21875 690.0539 461.90625Q689.8195 461.57812 689.72577 461.10938Q689.66327 460.8125 689.66327 460.125L689.66327 456.28125L690.72577 456.28125L690.72577 459.73438Q690.72577 460.54688 690.78827 460.84375Q690.882 461.25 691.1945 461.5Q691.52264 461.73438 692.007 461.73438Q692.47577 461.73438 692.882 461.5Q693.3039 461.25 693.47577 460.82812Q693.66327 460.40625 693.66327 459.60938L693.66327 456.28125L694.71014 456.28125L694.71014 462.5L693.77264 462.5ZM700.72577 462.5L700.72577 461.71875Q700.132 462.64062 698.9914 462.64062Q698.2414 462.64062 697.6164 462.23438Q696.9914 461.8125 696.64764 461.07812Q696.3039 460.34375 696.3039 459.39062Q696.3039 458.46875 696.6164 457.70312Q696.9289 456.9375 697.5539 456.54688Q698.1789 456.14062 698.9445 456.14062Q699.507 456.14062 699.9445 456.375Q700.382 456.60938 700.66327 456.98438L700.66327 453.90625L701.71014 453.90625L701.71014 462.5L700.72577 462.5ZM697.39764 459.39062Q697.39764 460.59375 697.89764 461.1875Q698.39764 461.76562 699.08514 461.76562Q699.77264 461.76562 700.257 461.20312Q700.7414 460.64062 700.7414 459.48438Q700.7414 458.20312 700.2414 457.60938Q699.757 457.01562 699.03827 457.01562Q698.33514 457.01562 697.8664 457.59375Q697.39764 458.15625 697.39764 459.39062ZM703.6945 455.125L703.6945 453.90625L704.757 453.90625L704.757 455.125L703.6945 455.125ZM703.6945 462.5L703.6945 456.28125L704.757 456.28125L704.757 462.5L703.6945 462.5ZM706.6945 462.5L706.6945 456.28125L707.632 456.28125L707.632 457.15625Q708.3195 456.14062 709.6164 456.14062Q710.1789 456.14062 710.64764 456.34375Q711.132 456.54688 711.3664 456.875Q711.60077 457.20312 711.6945 457.64062Q711.7414 457.9375 711.7414 458.67188L711.7414 462.5L710.6945 462.5L710.6945 458.71875Q710.6945 458.0625 710.5695 457.75Q710.4445 457.4375 710.132 457.25Q709.8195 457.04688 709.39764 457.04688Q708.72577 457.04688 708.22577 457.48438Q707.7414 457.90625 707.7414 459.09375L707.7414 462.5L706.6945 462.5ZM713.4914 463.01562L714.52264 463.17188Q714.58514 463.64062 714.882 463.85938Q715.27264 464.15625 715.9445 464.15625Q716.6789 464.15625 717.0695 463.85938Q717.47577 463.5625 717.6164 463.04688Q717.71014 462.71875 717.6945 461.6875Q717.007 462.5 715.97577 462.5Q714.6945 462.5 713.9914 461.57812Q713.28827 460.64062 713.28827 459.35938Q713.28827 458.46875 713.60077 457.71875Q713.9289 456.95312 714.53827 456.54688Q715.14764 456.14062 715.97577 456.14062Q717.08514 456.14062 717.8039 457.03125L717.8039 456.28125L718.77264 456.28125L718.77264 461.65625Q718.77264 463.10938 718.47577 463.71875Q718.1789 464.32812 717.53827 464.67188Q716.89764 465.03125 715.96014 465.03125Q714.85077 465.03125 714.16327 464.53125Q713.47577 464.03125 713.4914 463.01562ZM714.3664 459.28125Q714.3664 460.5 714.85077 461.0625Q715.33514 461.625 716.0695 461.625Q716.8039 461.625 717.28827 461.0625Q717.78827 460.5 717.78827 459.3125Q717.78827 458.17188 717.27264 457.59375Q716.77264 457.01562 716.0539 457.01562Q715.35077 457.01562 714.85077 457.59375Q714.3664 458.15625 714.3664 459.28125ZM727.72577 462.5L727.72577 461.71875Q727.132 462.64062 725.9914 462.64062Q725.2414 462.64062 724.6164 462.23438Q723.9914 461.8125 723.64764 461.07812Q723.3039 460.34375 723.3039 459.39062Q723.3039 458.46875 723.6164 457.70312Q723.9289 456.9375 724.5539 456.54688Q725.1789 456.14062 725.9445 456.14062Q726.507 456.14062 726.9445 456.375Q727.382 456.60938 727.66327 456.98438L727.66327 453.90625L728.71014 453.90625L728.71014 462.5L727.72577 462.5ZM724.39764 459.39062Q724.39764 460.59375 724.89764 461.1875Q725.39764 461.76562 726.08514 461.76562Q726.77264 461.76562 727.257 461.20312Q727.7414 460.64062 727.7414 459.48438Q727.7414 458.20312 727.2414 457.60938Q726.757 457.01562 726.03827 457.01562Q725.33514 457.01562 724.8664 457.59375Q724.39764 458.15625 724.39764 459.39062ZM730.6945 462.5L730.6945 456.28125L731.632 456.28125L731.632 457.15625Q731.9289 456.6875 732.41327 456.42188Q732.89764 456.14062 733.52264 456.14062Q734.21014 456.14062 734.64764 456.42188Q735.10077 456.70312 735.27264 457.21875Q736.02264 456.14062 737.1945 456.14062Q738.132 456.14062 738.6164 456.65625Q739.1164 457.15625 739.1164 458.23438L739.1164 462.5L738.0695 462.5L738.0695 458.57812Q738.0695 457.95312 737.96014 457.67188Q737.8664 457.39062 737.60077 457.21875Q737.33514 457.04688 736.96014 457.04688Q736.3039 457.04688 735.8664 457.48438Q735.4445 457.92188 735.4445 458.89062L735.4445 462.5L734.382 462.5L734.382 458.45312Q734.382 457.75 734.1164 457.40625Q733.8664 457.04688 733.28827 457.04688Q732.83514 457.04688 732.46014 457.28125Q732.08514 457.51562 731.91327 457.96875Q731.7414 458.42188 731.7414 459.26562L731.7414 462.5L730.6945 462.5ZM741.27264 460.64062L742.3039 460.48438Q742.39764 461.10938 742.78827 461.4375Q743.1945 461.76562 743.9289 461.76562Q744.64764 461.76562 744.9914 461.48438Q745.35077 461.1875 745.35077 460.78125Q745.35077 460.42188 745.03827 460.21875Q744.8195 460.07812 743.96014 459.85938Q742.8039 459.5625 742.35077 459.35938Q741.91327 459.14062 741.6789 458.76562Q741.4445 458.39062 741.4445 457.92188Q741.4445 457.51562 741.632 457.15625Q741.8195 456.79688 742.14764 456.5625Q742.39764 456.39062 742.8195 456.26562Q743.2414 456.14062 743.7414 456.14062Q744.46014 456.14062 745.007 456.35938Q745.5695 456.5625 745.83514 456.92188Q746.10077 457.28125 746.1945 457.875L745.16327 458.01562Q745.10077 457.54688 744.757 457.28125Q744.4289 457.0 743.8039 457.0Q743.08514 457.0 742.77264 457.25Q742.46014 457.48438 742.46014 457.8125Q742.46014 458.01562 742.58514 458.17188Q742.72577 458.34375 742.9914 458.45312Q743.14764 458.51562 743.9289 458.71875Q745.0539 459.03125 745.4914 459.21875Q745.9289 459.40625 746.1789 459.76562Q746.4289 460.125 746.4289 460.67188Q746.4289 461.20312 746.1164 461.67188Q745.8195 462.125 745.2414 462.39062Q744.66327 462.64062 743.9289 462.64062Q742.71014 462.64062 742.0695 462.14062Q741.4445 461.625 741.27264 460.64062ZM748.3039 459.39062Q748.3039 457.65625 749.257 456.82812Q750.0539 456.14062 751.21014 456.14062Q752.4914 456.14062 753.3039 456.98438Q754.132 457.8125 754.132 459.29688Q754.132 460.5 753.77264 461.1875Q753.41327 461.875 752.71014 462.26562Q752.02264 462.64062 751.21014 462.64062Q749.91327 462.64062 749.10077 461.8125Q748.3039 460.96875 748.3039 459.39062ZM749.382 459.39062Q749.382 460.57812 749.89764 461.17188Q750.4289 461.76562 751.21014 461.76562Q752.007 461.76562 752.52264 461.17188Q753.03827 460.57812 753.03827 459.35938Q753.03827 458.20312 752.507 457.60938Q751.9914 457.01562 751.21014 457.01562Q750.4289 457.01562 749.89764 457.60938Q749.382 458.1875 749.382 459.39062Z" fill-rule="nonzero"/><path fill="#4285f4" d="M331.5 66.833336C331.5 66.28105 331.94772 65.833336 332.5 65.833336L342.5 65.833336C343.05228 65.833336 343.5 66.28105 343.5 66.833336L343.5 76.833336C343.5 77.38562 343.05228 77.833336 342.5 77.833336L332.5 77.833336C331.94772 77.833336 331.5 77.38562 331.5 76.833336Z" fill-rule="nonzero"/><path fill="#1a1a1a" d="M351.48438 75.833336L354.78125 67.239586L356.0 67.239586L359.51562 75.833336L358.23438 75.833336L357.21875 73.22396L353.64062 73.22396L352.6875 75.833336L351.48438 75.833336ZM353.96875 72.302086L356.875 72.302086L355.98438 69.927086Q355.5625 68.84896 355.375 68.145836Q355.20312 68.97396 354.90625 69.78646L353.96875 72.302086ZM364.3125 78.364586Q363.4375 77.25521 362.82812 75.78646Q362.23438 74.302086 362.23438 72.72396Q362.23438 71.333336 362.67188 70.052086Q363.20312 68.56771 364.3125 67.09896L365.0625 67.09896Q364.35938 68.31771 364.125 68.833336Q363.76562 69.645836 363.5625 70.520836Q363.3125 71.614586 363.3125 72.72396Q363.3125 75.552086 365.0625 78.364586L364.3125 78.364586ZM370.32812 75.833336L370.32812 75.052086Q369.73438 75.97396 368.59375 75.97396Q367.84375 75.97396 367.21875 75.56771Q366.59375 75.145836 366.25 74.41146Q365.90625 73.677086 365.90625 72.72396Q365.90625 71.802086 366.21875 71.03646Q366.53125 70.270836 367.15625 69.88021Q367.78125 69.47396 368.54688 69.47396Q369.10938 69.47396 369.54688 69.708336Q369.98438 69.94271 370.26562 70.31771L370.26562 67.239586L371.3125 67.239586L371.3125 75.833336L370.32812 75.833336ZM367.0 72.72396Q367.0 73.927086 367.5 74.520836Q368.0 75.09896 368.6875 75.09896Q369.375 75.09896 369.85938 74.53646Q370.34375 73.97396 370.34375 72.81771Q370.34375 71.53646 369.84375 70.94271Q369.35938 70.34896 368.64062 70.34896Q367.9375 70.34896 367.46875 70.927086Q367.0 71.489586 367.0 72.72396ZM373.28125 75.833336L373.28125 69.614586L374.23438 69.614586L374.23438 70.552086Q374.59375 69.895836 374.89062 69.69271Q375.20312 69.47396 375.57812 69.47396Q376.10938 69.47396 376.65625 69.802086L376.29688 70.78646Q375.90625 70.552086 375.53125 70.552086Q375.17188 70.552086 374.89062 70.770836Q374.625 70.97396 374.51562 71.34896Q374.32812 71.91146 374.32812 72.56771L374.32812 75.833336L373.28125 75.833336ZM377.25 78.22396L377.125 77.239586Q377.46875 77.333336 377.73438 77.333336Q378.07812 77.333336 378.28125 77.208336Q378.5 77.09896 378.64062 76.895836Q378.73438 76.72396 378.96875 76.09896Q378.98438 76.020836 379.0625 75.84896L376.6875 69.614586L377.82812 69.614586L379.125 73.208336Q379.375 73.895836 379.57812 74.66146Q379.76562 73.927086 380.01562 73.239586L381.34375 69.614586L382.39062 69.614586L380.03125 75.94271Q379.64062 76.958336 379.4375 77.34896Q379.15625 77.88021 378.78125 78.114586Q378.42188 78.364586 377.92188 78.364586Q377.625 78.364586 377.25 78.22396ZM382.98438 78.364586L382.23438 78.364586Q383.98438 75.552086 383.98438 72.72396Q383.98438 71.63021 383.73438 70.53646Q383.53125 69.66146 383.17188 68.84896Q382.9375 68.333336 382.23438 67.09896L382.98438 67.09896Q384.07812 68.56771 384.60938 70.052086Q385.0625 71.333336 385.0625 72.72396Q385.0625 74.302086 384.45312 75.78646Q383.84375 77.25521 382.98438 78.364586Z" fill-rule="nonzero"/><path fill="#ea4335" d="M401.5 66.833336C401.5 66.28105 401.94772 65.833336 402.5 65.833336L412.5 65.833336C413.05228 65.833336 413.5 66.28105 413.5 66.833336L413.5 76.833336C413.5 77.38562 413.05228 77.833336 412.5 77.833336L402.5 77.833336C401.94772 77.833336 401.5 77.38562 401.5 76.833336Z" fill-rule="nonzero"/><path fill="#1a1a1a" d="M422.375 75.833336L422.375 67.239586L425.60938 67.239586Q426.59375 67.239586 427.1875 67.50521Q427.78125 67.770836 428.10938 68.31771Q428.45312 68.84896 428.45312 69.44271Q428.45312 69.989586 428.15625 70.47396Q427.85938 70.958336 427.25 71.25521Q428.03125 71.489586 428.4375 72.052086Q428.85938 72.59896 428.85938 73.34896Q428.85938 73.94271 428.60938 74.47396Q428.35938 74.989586 427.98438 75.270836Q427.60938 75.552086 427.03125 75.69271Q426.46875 75.833336 425.65625 75.833336L422.375 75.833336ZM423.51562 70.84896L425.375 70.84896Q426.125 70.84896 426.45312 70.75521Q426.89062 70.63021 427.10938 70.333336Q427.32812 70.020836 427.32812 69.56771Q427.32812 69.145836 427.125 68.81771Q426.92188 68.489586 426.53125 68.38021Q426.15625 68.25521 425.23438 68.25521L423.51562 68.25521L423.51562 70.84896ZM423.51562 74.81771L425.65625 74.81771Q426.20312 74.81771 426.42188 74.770836Q426.82812 74.708336 427.07812 74.552086Q427.34375 74.38021 427.51562 74.06771Q427.6875 73.75521 427.6875 73.34896Q427.6875 72.864586 427.4375 72.50521Q427.20312 72.145836 426.76562 72.00521Q426.32812 71.864586 425.5 71.864586L423.51562 71.864586L423.51562 74.81771ZM435.3125 78.364586Q434.4375 77.25521 433.82812 75.78646Q433.23438 74.302086 433.23438 72.72396Q433.23438 71.333336 433.67188 70.052086Q434.20312 68.56771 435.3125 67.09896L436.0625 67.09896Q435.35938 68.31771 435.125 68.833336Q434.76562 69.645836 434.5625 70.520836Q434.3125 71.614586 434.3125 72.72396Q434.3125 75.552086 436.0625 78.364586L435.3125 78.364586ZM438.4375 75.833336L436.53125 69.614586L437.625 69.614586L438.60938 73.208336L438.98438 74.53646Q439.01562 74.44271 439.3125 73.25521L440.29688 69.614586L441.375 69.614586L442.3125 73.22396L442.625 74.41146L442.98438 73.208336L444.04688 69.614586L445.07812 69.614586L443.125 75.833336L442.03125 75.833336L441.04688 72.09896L440.79688 71.052086L439.54688 75.833336L438.4375 75.833336ZM450.54688 73.833336L451.64062 73.958336Q451.39062 74.91146 450.6875 75.44271Q449.98438 75.97396 448.90625 75.97396Q447.54688 75.97396 446.73438 75.13021Q445.9375 74.28646 445.9375 72.770836Q445.9375 71.208336 446.75 70.34896Q447.5625 69.47396 448.84375 69.47396Q450.09375 69.47396 450.875 70.31771Q451.67188 71.16146 451.67188 72.708336Q451.67188 72.802086 451.67188 72.989586L447.03125 72.989586Q447.09375 74.020836 447.60938 74.56771Q448.125 75.09896 448.90625 75.09896Q449.48438 75.09896 449.89062 74.802086Q450.3125 74.489586 450.54688 73.833336ZM447.09375 72.13021L450.5625 72.13021Q450.5 71.333336 450.17188 70.94271Q449.65625 70.333336 448.85938 70.333336Q448.125 70.333336 447.625 70.81771Q447.14062 71.302086 447.09375 72.13021ZM455.59375 74.895836L455.75 75.81771Q455.29688 75.91146 454.95312 75.91146Q454.375 75.91146 454.0625 75.739586Q453.75 75.552086 453.60938 75.25521Q453.48438 74.958336 453.48438 74.00521L453.48438 70.427086L452.71875 70.427086L452.71875 69.614586L453.48438 69.614586L453.48438 68.06771L454.53125 67.44271L454.53125 69.614586L455.59375 69.614586L455.59375 70.427086L454.53125 70.427086L454.53125 74.06771Q454.53125 74.520836 454.57812 74.645836Q454.64062 74.770836 454.76562 74.84896Q454.89062 74.927086 455.125 74.927086Q455.3125 74.927086 455.59375 74.895836ZM456.98438 78.364586L456.23438 78.364586Q457.98438 75.552086 457.98438 72.72396Q457.98438 71.63021 457.73438 70.53646Q457.53125 69.66146 457.17188 68.84896Q456.9375 68.333336 456.23438 67.09896L456.98438 67.09896Q458.07812 68.56771 458.60938 70.052086Q459.0625 71.333336 459.0625 72.72396Q459.0625 74.302086 458.45312 75.78646Q457.84375 77.25521 456.98438 78.364586Z" fill-rule="nonzero"/><path fill="#757575" d="M25.8125 43.5L25.8125 33.125L27.390625 33.125L27.390625 34.578125Q27.875 33.828125 28.6875 33.359375Q29.5 32.890625 30.53125 32.890625Q31.6875 32.890625 32.421875 33.375Q33.15625 33.84375 33.46875 34.703125Q34.703125 32.890625 36.671875 32.890625Q38.21875 32.890625 39.046875 33.75Q39.875 34.609375 39.875 36.375L39.875 43.5L38.125 43.5L38.125 36.96875Q38.125 35.90625 37.953125 35.453125Q37.78125 34.984375 37.328125 34.703125Q36.890625 34.421875 36.28125 34.421875Q35.1875 34.421875 34.453125 35.15625Q33.734375 35.875 33.734375 37.46875L33.734375 43.5L31.984375 43.5L31.984375 36.765625Q31.984375 35.59375 31.546875 35.015625Q31.125 34.421875 30.140625 34.421875Q29.40625 34.421875 28.765625 34.8125Q28.140625 35.203125 27.859375 35.953125Q27.578125 36.703125 27.578125 38.125L27.578125 43.5L25.8125 43.5ZM48.59375 42.21875Q47.609375 43.046875 46.703125 43.390625Q45.796875 43.734375 44.765625 43.734375Q43.0625 43.734375 42.140625 42.90625Q41.21875 42.0625 41.21875 40.765625Q41.21875 40.0 41.5625 39.375Q41.921875 38.75 42.484375 38.375Q43.046875 37.984375 43.75 37.78125Q44.265625 37.65625 45.3125 37.515625Q47.4375 37.265625 48.4375 36.921875Q48.453125 36.5625 48.453125 36.453125Q48.453125 35.390625 47.953125 34.9375Q47.28125 34.34375 45.953125 34.34375Q44.703125 34.34375 44.109375 34.78125Q43.53125 35.21875 43.25 36.328125L41.53125 36.09375Q41.765625 34.984375 42.296875 34.3125Q42.828125 33.625 43.84375 33.265625Q44.859375 32.890625 46.203125 32.890625Q47.53125 32.890625 48.359375 33.203125Q49.1875 33.515625 49.578125 34.0Q49.96875 34.46875 50.125 35.1875Q50.21875 35.640625 50.21875 36.8125L50.21875 39.15625Q50.21875 41.609375 50.328125 42.265625Q50.4375 42.90625 50.78125 43.5L48.9375 43.5Q48.671875 42.953125 48.59375 42.21875ZM48.4375 38.296875Q47.484375 38.6875 45.5625 38.953125Q44.484375 39.109375 44.03125 39.3125Q43.59375 39.5 43.34375 39.875Q43.09375 40.25 43.09375 40.71875Q43.09375 41.421875 43.625 41.890625Q44.15625 42.359375 45.1875 42.359375Q46.203125 42.359375 46.984375 41.921875Q47.78125 41.46875 48.15625 40.703125Q48.4375 40.09375 48.4375 38.9375L48.4375 38.296875ZM52.109375 40.40625L53.859375 40.125Q54.0 41.171875 54.671875 41.734375Q55.34375 42.28125 56.546875 42.28125Q57.75 42.28125 58.328125 41.796875Q58.921875 41.296875 58.921875 40.640625Q58.921875 40.046875 58.40625 39.703125Q58.046875 39.46875 56.609375 39.109375Q54.671875 38.609375 53.921875 38.265625Q53.1875 37.90625 52.796875 37.28125Q52.40625 36.640625 52.40625 35.875Q52.40625 35.1875 52.71875 34.59375Q53.046875 34.0 53.59375 33.609375Q54.0 33.3125 54.703125 33.109375Q55.421875 32.890625 56.234375 32.890625Q57.453125 32.890625 58.375 33.25Q59.296875 33.59375 59.734375 34.203125Q60.171875 34.796875 60.34375 35.796875L58.625 36.03125Q58.5 35.234375 57.9375 34.796875Q57.375 34.34375 56.359375 34.34375Q55.140625 34.34375 54.625 34.75Q54.109375 35.140625 54.109375 35.671875Q54.109375 36.015625 54.328125 36.296875Q54.53125 36.578125 55.0 36.765625Q55.265625 36.859375 56.546875 37.203125Q58.421875 37.703125 59.15625 38.03125Q59.890625 38.34375 60.3125 38.953125Q60.734375 39.546875 60.734375 40.453125Q60.734375 41.328125 60.21875 42.109375Q59.703125 42.890625 58.734375 43.3125Q57.765625 43.734375 56.546875 43.734375Q54.53125 43.734375 53.46875 42.890625Q52.40625 42.046875 52.109375 40.40625ZM62.109375 40.40625L63.859375 40.125Q64.0 41.171875 64.671875 41.734375Q65.34375 42.28125 66.546875 42.28125Q67.75 42.28125 68.328125 41.796875Q68.921875 41.296875 68.921875 40.640625Q68.921875 40.046875 68.40625 39.703125Q68.046875 39.46875 66.609375 39.109375Q64.671875 38.609375 63.921875 38.265625Q63.1875 37.90625 62.796875 37.28125Q62.40625 36.640625 62.40625 35.875Q62.40625 35.1875 62.71875 34.59375Q63.046875 34.0 63.59375 33.609375Q64.0 33.3125 64.703125 33.109375Q65.421875 32.890625 66.234375 32.890625Q67.453125 32.890625 68.375 33.25Q69.296875 33.59375 69.734375 34.203125Q70.171875 34.796875 70.34375 35.796875L68.625 36.03125Q68.5 35.234375 67.9375 34.796875Q67.375 34.34375 66.359375 34.34375Q65.140625 34.34375 64.625 34.75Q64.109375 35.140625 64.109375 35.671875Q64.109375 36.015625 64.328125 36.296875Q64.53125 36.578125 65.0 36.765625Q65.265625 36.859375 66.546875 37.203125Q68.421875 37.703125 69.15625 38.03125Q69.890625 38.34375 70.3125 38.953125Q70.734375 39.546875 70.734375 40.453125Q70.734375 41.328125 70.21875 42.109375Q69.703125 42.890625 68.734375 43.3125Q67.765625 43.734375 66.546875 43.734375Q64.53125 43.734375 63.46875 42.890625Q62.40625 42.046875 62.109375 40.40625ZM85.59375 39.703125L87.3125 39.921875Q87.03125 41.71875 85.859375 42.734375Q84.703125 43.734375 83.0 43.734375Q80.875 43.734375 79.578125 42.34375Q78.28125 40.953125 78.28125 38.359375Q78.28125 36.671875 78.828125 35.421875Q79.390625 34.15625 80.53125 33.53125Q81.671875 32.890625 83.015625 32.890625Q84.703125 32.890625 85.765625 33.75Q86.84375 34.609375 87.15625 36.171875L85.4375 36.4375Q85.203125 35.390625 84.578125 34.875Q83.953125 34.34375 83.078125 34.34375Q81.75 34.34375 80.921875 35.296875Q80.09375 36.25 80.09375 38.296875Q80.09375 40.390625 80.890625 41.34375Q81.6875 42.28125 82.984375 42.28125Q84.015625 42.28125 84.703125 41.65625Q85.40625 41.015625 85.59375 39.703125ZM88.8125 43.5L88.8125 29.1875L90.578125 29.1875L90.578125 34.3125Q91.8125 32.890625 93.6875 32.890625Q94.828125 32.890625 95.671875 33.34375Q96.53125 33.796875 96.890625 34.609375Q97.265625 35.40625 97.265625 36.921875L97.265625 43.5L95.515625 43.5L95.515625 36.921875Q95.515625 35.609375 94.9375 35.015625Q94.359375 34.40625 93.328125 34.40625Q92.546875 34.40625 91.84375 34.8125Q91.15625 35.21875 90.859375 35.921875Q90.578125 36.609375 90.578125 37.828125L90.578125 43.5L88.8125 43.5ZM105.59375 42.21875Q104.609375 43.046875 103.703125 43.390625Q102.796875 43.734375 101.765625 43.734375Q100.0625 43.734375 99.140625 42.90625Q98.21875 42.0625 98.21875 40.765625Q98.21875 40.0 98.5625 39.375Q98.921875 38.75 99.484375 38.375Q100.046875 37.984375 100.75 37.78125Q101.265625 37.65625 102.3125 37.515625Q104.4375 37.265625 105.4375 36.921875Q105.453125 36.5625 105.453125 36.453125Q105.453125 35.390625 104.953125 34.9375Q104.28125 34.34375 102.953125 34.34375Q101.703125 34.34375 101.109375 34.78125Q100.53125 35.21875 100.25 36.328125L98.53125 36.09375Q98.765625 34.984375 99.296875 34.3125Q99.828125 33.625 100.84375 33.265625Q101.859375 32.890625 103.203125 32.890625Q104.53125 32.890625 105.359375 33.203125Q106.1875 33.515625 106.578125 34.0Q106.96875 34.46875 107.125 35.1875Q107.21875 35.640625 107.21875 36.8125L107.21875 39.15625Q107.21875 41.609375 107.328125 42.265625Q107.4375 42.90625 107.78125 43.5L105.9375 43.5Q105.671875 42.953125 105.59375 42.21875ZM105.4375 38.296875Q104.484375 38.6875 102.5625 38.953125Q101.484375 39.109375 101.03125 39.3125Q100.59375 39.5 100.34375 39.875Q100.09375 40.25 100.09375 40.71875Q100.09375 41.421875 100.625 41.890625Q101.15625 42.359375 102.1875 42.359375Q103.203125 42.359375 103.984375 41.921875Q104.78125 41.46875 105.15625 40.703125Q105.4375 40.09375 105.4375 38.9375L105.4375 38.296875ZM109.8125 43.5L109.8125 33.125L111.40625 33.125L111.40625 34.609375Q112.546875 32.890625 114.703125 32.890625Q115.640625 32.890625 116.421875 33.234375Q117.21875 33.5625 117.609375 34.109375Q118.0 34.65625 118.15625 35.40625Q118.25 35.90625 118.25 37.125L118.25 43.5L116.484375 43.5L116.484375 37.1875Q116.484375 36.109375 116.28125 35.578125Q116.078125 35.046875 115.546875 34.734375Q115.03125 34.421875 114.328125 34.421875Q113.203125 34.421875 112.390625 35.140625Q111.578125 35.84375 111.578125 37.828125L111.578125 43.5L109.8125 43.5ZM119.5 44.359375L121.203125 44.609375Q121.3125 45.40625 121.796875 45.765625Q122.453125 46.25 123.59375 46.25Q124.8125 46.25 125.46875 45.765625Q126.140625 45.28125 126.375 44.40625Q126.515625 43.859375 126.5 42.140625Q125.34375 43.5 123.625 43.5Q121.484375 43.5 120.3125 41.953125Q119.140625 40.40625 119.140625 38.25Q119.140625 36.765625 119.671875 35.515625Q120.21875 34.265625 121.234375 33.578125Q122.265625 32.890625 123.640625 32.890625Q125.46875 32.890625 126.671875 34.375L126.671875 33.125L128.28125 33.125L128.28125 42.09375Q128.28125 44.515625 127.78125 45.515625Q127.296875 46.53125 126.21875 47.109375Q125.15625 47.703125 123.59375 47.703125Q121.75 47.703125 120.59375 46.875Q119.453125 46.046875 119.5 44.359375ZM120.953125 38.125Q120.953125 40.171875 121.765625 41.109375Q122.578125 42.046875 123.796875 42.046875Q125.0 42.046875 125.8125 41.109375Q126.640625 40.171875 126.640625 38.1875Q126.640625 36.28125 125.796875 35.3125Q124.953125 34.34375 123.765625 34.34375Q122.59375 34.34375 121.765625 35.296875Q120.953125 36.25 120.953125 38.125ZM137.92188 40.15625L139.73438 40.390625Q139.3125 41.96875 138.14062 42.859375Q136.98438 43.734375 135.17188 43.734375Q132.90625 43.734375 131.5625 42.34375Q130.23438 40.9375 130.23438 38.40625Q130.23438 35.78125 131.57812 34.34375Q132.92188 32.890625 135.07812 32.890625Q137.15625 32.890625 138.46875 34.3125Q139.79688 35.71875 139.79688 38.296875Q139.79688 38.453125 139.78125 38.765625L132.04688 38.765625Q132.14062 40.46875 133.01562 41.375Q133.89062 42.28125 135.1875 42.28125Q136.15625 42.28125 136.82812 41.78125Q137.51562 41.265625 137.92188 40.15625ZM132.14062 37.3125L137.9375 37.3125Q137.82812 36.015625 137.28125 35.359375Q136.4375 34.34375 135.09375 34.34375Q133.89062 34.34375 133.0625 35.15625Q132.23438 35.953125 132.14062 37.3125ZM149.4375 43.5L147.8125 43.5L147.8125 29.1875L149.5625 29.1875L149.5625 34.296875Q150.6875 32.890625 152.40625 32.890625Q153.35938 32.890625 154.21875 33.28125Q155.07812 33.671875 155.625 34.375Q156.17188 35.0625 156.48438 36.046875Q156.79688 37.03125 156.79688 38.15625Q156.79688 40.828125 155.48438 42.28125Q154.17188 43.734375 152.32812 43.734375Q150.48438 43.734375 149.4375 42.203125L149.4375 43.5ZM149.42188 38.234375Q149.42188 40.09375 149.92188 40.9375Q150.76562 42.28125 152.17188 42.28125Q153.32812 42.28125 154.15625 41.28125Q155.0 40.28125 155.0 38.296875Q155.0 36.265625 154.1875 35.3125Q153.39062 34.34375 152.25 34.34375Q151.09375 34.34375 150.25 35.34375Q149.42188 36.34375 149.42188 38.234375ZM158.73438 47.5L158.54688 45.84375Q159.125 46.0 159.54688 46.0Q160.14062 46.0 160.48438 45.796875Q160.84375 45.609375 161.0625 45.265625Q161.23438 45.0 161.60938 43.953125Q161.65625 43.796875 161.76562 43.515625L157.82812 33.125L159.71875 33.125L161.875 39.140625Q162.29688 40.28125 162.625 41.53125Q162.9375 40.328125 163.34375 39.171875L165.5625 33.125L167.32812 33.125L163.375 43.671875Q162.75 45.390625 162.39062 46.03125Q161.92188 46.90625 161.3125 47.296875Q160.71875 47.703125 159.875 47.703125Q159.35938 47.703125 158.73438 47.5ZM174.10938 40.40625L175.85938 40.125Q176.0 41.171875 176.67188 41.734375Q177.34375 42.28125 178.54688 42.28125Q179.75 42.28125 180.32812 41.796875Q180.92188 41.296875 180.92188 40.640625Q180.92188 40.046875 180.40625 39.703125Q180.04688 39.46875 178.60938 39.109375Q176.67188 38.609375 175.92188 38.265625Q175.1875 37.90625 174.79688 37.28125Q174.40625 36.640625 174.40625 35.875Q174.40625 35.1875 174.71875 34.59375Q175.04688 34.0 175.59375 33.609375Q176.0 33.3125 176.70312 33.109375Q177.42188 32.890625 178.23438 32.890625Q179.45312 32.890625 180.375 33.25Q181.29688 33.59375 181.73438 34.203125Q182.17188 34.796875 182.34375 35.796875L180.625 36.03125Q180.5 35.234375 179.9375 34.796875Q179.375 34.34375 178.35938 34.34375Q177.14062 34.34375 176.625 34.75Q176.10938 35.140625 176.10938 35.671875Q176.10938 36.015625 176.32812 36.296875Q176.53125 36.578125 177.0 36.765625Q177.26562 36.859375 178.54688 37.203125Q180.42188 37.703125 181.15625 38.03125Q181.89062 38.34375 182.3125 38.953125Q182.73438 39.546875 182.73438 40.453125Q182.73438 41.328125 182.21875 42.109375Q181.70312 42.890625 180.73438 43.3125Q179.76562 43.734375 178.54688 43.734375Q176.53125 43.734375 175.46875 42.890625Q174.40625 42.046875 174.10938 40.40625ZM184.17188 38.3125Q184.17188 35.4375 185.76562 34.046875Q187.10938 32.890625 189.03125 32.890625Q191.17188 32.890625 192.51562 34.296875Q193.875 35.703125 193.875 38.171875Q193.875 40.171875 193.28125 41.328125Q192.6875 42.46875 191.53125 43.109375Q190.39062 43.734375 189.03125 43.734375Q186.84375 43.734375 185.5 42.34375Q184.17188 40.9375 184.17188 38.3125ZM185.96875 38.3125Q185.96875 40.3125 186.82812 41.296875Q187.70312 42.28125 189.03125 42.28125Q190.34375 42.28125 191.20312 41.296875Q192.07812 40.296875 192.07812 38.25Q192.07812 36.328125 191.20312 35.34375Q190.32812 34.34375 189.03125 34.34375Q187.70312 34.34375 186.82812 35.34375Q185.96875 36.328125 185.96875 38.3125ZM195.78125 43.5L195.78125 29.1875L197.53125 29.1875L197.53125 43.5L195.78125 43.5ZM206.60938 43.5L206.60938 41.96875Q205.40625 43.734375 203.32812 43.734375Q202.40625 43.734375 201.60938 43.390625Q200.8125 43.03125 200.42188 42.5Q200.04688 41.96875 199.89062 41.1875Q199.78125 40.671875 199.78125 39.546875L199.78125 33.125L201.53125 33.125L201.53125 38.875Q201.53125 40.25 201.64062 40.734375Q201.8125 41.421875 202.34375 41.828125Q202.89062 42.21875 203.67188 42.21875Q204.46875 42.21875 205.15625 41.8125Q205.85938 41.40625 206.14062 40.71875Q206.4375 40.015625 206.4375 38.6875L206.4375 33.125L208.1875 33.125L208.1875 43.5L206.60938 43.5ZM213.65625 41.921875L213.90625 43.484375Q213.17188 43.640625 212.57812 43.640625Q211.625 43.640625 211.09375 43.34375Q210.57812 43.03125 210.35938 42.546875Q210.14062 42.046875 210.14062 40.46875L210.14062 34.5L208.85938 34.5L208.85938 33.125L210.14062 33.125L210.14062 30.5625L211.89062 29.5L211.89062 33.125L213.65625 33.125L213.65625 34.5L211.89062 34.5L211.89062 40.5625Q211.89062 41.3125 211.98438 41.53125Q212.07812 41.734375 212.28125 41.875Q212.5 42.0 212.89062 42.0Q213.17188 42.0 213.65625 41.921875ZM215.82812 31.203125L215.82812 29.1875L217.59375 29.1875L217.59375 31.203125L215.82812 31.203125ZM215.82812 43.5L215.82812 33.125L217.59375 33.125L217.59375 43.5L215.82812 43.5ZM219.17188 38.3125Q219.17188 35.4375 220.76562 34.046875Q222.10938 32.890625 224.03125 32.890625Q226.17188 32.890625 227.51562 34.296875Q228.875 35.703125 228.875 38.171875Q228.875 40.171875 228.28125 41.328125Q227.6875 42.46875 226.53125 43.109375Q225.39062 43.734375 224.03125 43.734375Q221.84375 43.734375 220.5 42.34375Q219.17188 40.9375 219.17188 38.3125ZM220.96875 38.3125Q220.96875 40.3125 221.82812 41.296875Q222.70312 42.28125 224.03125 42.28125Q225.34375 42.28125 226.20312 41.296875Q227.07812 40.296875 227.07812 38.25Q227.07812 36.328125 226.20312 35.34375Q225.32812 34.34375 224.03125 34.34375Q222.70312 34.34375 221.82812 35.34375Q220.96875 36.328125 220.96875 38.3125ZM230.8125 43.5L230.8125 33.125L232.40625 33.125L232.40625 34.609375Q233.54688 32.890625 235.70312 32.890625Q236.64062 32.890625 237.42188 33.234375Q238.21875 33.5625 238.60938 34.109375Q239.0 34.65625 239.15625 35.40625Q239.25 35.90625 239.25 37.125L239.25 43.5L237.48438 43.5L237.48438 37.1875Q237.48438 36.109375 237.28125 35.578125Q237.07812 35.046875 236.54688 34.734375Q236.03125 34.421875 235.32812 34.421875Q234.20312 34.421875 233.39062 35.140625Q232.57812 35.84375 232.57812 37.828125L232.57812 43.5L230.8125 43.5Z" fill-rule="nonzero"/></svg>