<svg width="469" height="469" viewBox="0 0 469 469" fill="none" xmlns="http://www.w3.org/2000/svg">
<rect x="8.5" y="8.5" width="452" height="452" fill="#1E1E50" stroke="white" stroke-width="17"/>
<path d="M163.451 233.092C163.451 207.701 166.039 187.291 171.215 171.861C176.488 156.334 184.252 144.371 194.506 135.973C204.857 127.574 217.846 123.375 233.471 123.375C244.994 123.375 255.102 125.719 263.793 130.406C272.484 134.996 279.662 141.686 285.326 150.475C290.99 159.166 295.434 169.811 298.656 182.408C301.879 194.908 303.49 211.803 303.49 233.092C303.49 258.287 300.902 278.648 295.727 294.176C290.551 309.605 282.787 321.568 272.436 330.064C262.182 338.463 249.193 342.662 233.471 342.662C212.768 342.662 196.508 335.24 184.691 320.396C170.531 302.525 163.451 273.424 163.451 233.092ZM190.551 233.092C190.551 268.346 194.652 291.832 202.855 303.551C211.156 315.172 221.361 320.982 233.471 320.982C245.58 320.982 255.736 315.123 263.939 303.404C272.24 291.686 276.391 268.248 276.391 233.092C276.391 197.74 272.24 174.254 263.939 162.633C255.736 151.012 245.482 145.201 233.178 145.201C221.068 145.201 211.4 150.328 204.174 160.582C195.092 173.668 190.551 197.838 190.551 233.092Z" fill="white"/>
</svg>
